<svg width="91" height="24" viewBox="0 0 91 24" fill="none" xmlns="http://www.w3.org/2000/svg">
<g clip-path="url(#clip0_7010_2145)">
<path d="M6.23434 0.630371L0.228516 18.2274H3.75693L5.45358 13.0924H10.3333L12.075 18.2274H15.6785L9.65766 0.630371H6.23434ZM9.47749 10.1646H6.3244L7.64571 6.29087C7.73577 6.02059 7.82589 5.76533 7.90097 5.51009C7.99103 5.78036 8.06611 6.05059 8.1712 6.3359L9.47749 10.1646Z" fill="white"/>
<path d="M21.6095 10.2099C19.9879 9.5643 19.8077 9.26401 19.8077 8.79858C19.8077 8.19795 20.3032 7.83761 21.114 7.83761C22.0599 7.83761 22.8106 8.21298 23.1709 8.43818L23.8616 8.87361L24.7775 6.08093L24.3571 5.81064C23.5613 5.28515 22.3601 4.98486 21.144 4.98486C18.4264 4.98486 16.4595 6.69653 16.4595 9.06881C16.4595 11.2459 18.3813 12.4021 20.0029 12.9876C21.6095 13.5882 21.7445 14.0086 21.7445 14.5191C21.7445 15.48 20.7386 15.6152 20.138 15.6152C19.2071 15.6152 18.2011 15.2248 17.6306 14.8794L16.9399 14.4741L16.0391 17.3118L16.4745 17.567C17.4654 18.1526 18.7867 18.4829 20.0929 18.4829C23.0809 18.4829 25.0928 16.8013 25.0928 14.3089C25.0928 11.8014 23.0959 10.7654 21.6095 10.2099Z" fill="white"/>
<path d="M30.3929 2.19189L27.0296 3.21288V5.22483H25.2129V8.12265H27.0296V13.8732C27.0296 15.4797 27.3449 16.6209 28.0206 17.3866C28.6812 18.0923 29.6572 18.4977 30.7983 18.4977C31.8193 18.4977 32.555 18.2875 32.9003 18.1673L33.3508 18.0172L33.1706 15.1044L32.3898 15.3296C32.1646 15.3897 31.8943 15.4497 31.3388 15.4497C30.9334 15.4497 30.3779 15.4497 30.3779 13.8132V8.12265H33.4258V5.22483H30.3929V2.19189Z" fill="white"/>
<path d="M41.6386 5.10485L41.023 5.01477C40.8428 4.98474 40.6627 4.96973 40.4224 4.96973C39.3564 4.96973 38.3804 5.40514 37.6297 6.17089L37.5847 5.22497H34.4316L34.4767 5.9006C34.5367 6.9066 34.5818 8.04769 34.5818 9.51911V18.2276H37.9901V11.3509C37.9901 11.0356 38.0201 10.7053 38.0502 10.48C38.3054 9.12877 39.1462 8.28791 40.2873 8.28791C40.5575 8.28791 40.7227 8.28791 40.8728 8.31797L41.6536 8.48311L41.6386 5.10485Z" fill="white"/>
<path d="M47.84 4.98486C44.0414 4.98486 41.3838 7.79258 41.3838 11.8315C41.3838 15.7653 43.9513 18.498 47.6449 18.498C50.7678 18.498 54.1161 16.3509 54.1161 11.6363C54.1311 7.7175 51.5486 4.98486 47.84 4.98486ZM50.6778 11.7114C50.6778 13.9786 49.4466 15.6302 47.765 15.6302C46.0833 15.6302 44.8672 13.9936 44.8672 11.7714C44.8672 10.33 45.4828 7.88264 47.81 7.88264C50.0772 7.85264 50.6778 10.3751 50.6778 11.7114Z" fill="white"/>
<path d="M65.3017 2.02672C64.1903 1.02075 62.4937 0.510254 60.3017 0.510254C58.8303 0.510254 57.4337 0.615356 56.1427 0.825562L55.6172 0.915648V18.2274H58.9954V11.8012C59.3406 11.8312 59.7011 11.8462 60.0617 11.8462C62.3434 11.8462 64.2806 11.1405 65.512 9.8643C66.4726 8.87333 66.9531 7.55208 66.9531 5.93048C66.9383 4.35397 66.3526 2.97264 65.3017 2.02672ZM63.56 6.03562C63.56 8.49796 61.3977 8.85836 60.1063 8.85836C59.6708 8.85836 59.3108 8.84333 59.0103 8.7983V3.51316C59.3406 3.46812 59.7914 3.4531 60.3617 3.4531C61.8034 3.4531 63.56 3.90354 63.56 6.03562Z" fill="white"/>
<path d="M77.2987 14.7744V10.3901C77.2987 6.89173 75.4816 4.98486 72.2084 4.98486C70.6919 4.98486 69.1004 5.40527 68.0044 6.09595L67.569 6.36618L68.485 9.06881L69.1759 8.60338C69.8816 8.12293 70.9021 7.83761 71.8936 7.83761C72.5839 7.82258 73.0793 7.98778 73.4096 8.3031C73.6799 8.57333 73.845 8.97876 73.905 9.48921C71.2478 9.5643 69.3107 10.1949 68.1096 11.381C67.2839 12.2069 66.8633 13.2429 66.8633 14.489C66.8633 16.486 68.305 18.498 71.0976 18.498C72.2839 18.498 73.3947 18.1226 74.2656 17.462L74.3558 18.2427H77.5838L77.4639 17.507C77.3587 16.7863 77.2987 15.8704 77.2987 14.7744ZM71.6233 15.6452C71.1124 15.6452 70.2719 15.465 70.2719 14.2488C70.2719 13.7834 70.4067 13.408 70.7073 13.1228C71.0976 12.7324 71.9833 12.282 73.9656 12.2519V13.6482C73.9656 13.7533 73.9501 13.9336 73.905 14.1137C73.665 14.8194 72.9296 15.6452 71.6233 15.6452Z" fill="white"/>
<path d="M86.682 5.2251L84.2043 12.5372C84.1443 12.7173 84.0843 12.9125 84.0243 13.0927C83.9643 12.9125 83.9043 12.7324 83.8294 12.5672L81.1265 5.2251H77.418L82.0723 16.8914L82.0877 16.9214C82.1625 17.0716 82.1928 17.1617 82.1928 17.1917C82.1625 17.2517 82.1174 17.3718 82.0877 17.4469C81.682 18.3028 81.0814 19.1136 80.4808 19.594L80.466 19.609C79.79 20.1946 79.0997 20.4498 78.8145 20.5249L78.214 20.7201L79.0848 23.6329L79.6403 23.5278C79.9854 23.4678 81.1865 23.1825 82.5677 22.0264C84.2197 20.5549 85.3157 18.2277 86.7568 14.444L90.2854 5.2251H86.682Z" fill="white"/>
<path d="M12.6608 5.46529C14.8529 3.22813 18.5765 1.89183 22.6154 1.89183C24.1919 1.89183 25.7234 2.08702 27.1798 2.49241L27.2999 2.52244L29.8824 1.74169L28.7263 1.29125C26.5192 0.450437 23.9817 0 21.3692 0C17.5705 0 14.0271 0.915886 11.3995 2.5825L11.1143 2.76267L12.2103 5.96074L12.6608 5.46529Z" fill="#20D4B2"/>
</g>
<defs>
<clipPath id="clip0_7010_2145">
<rect width="90.2857" height="24" fill="white"/>
</clipPath>
</defs>
</svg>
