<svg width="36" height="28" viewBox="0 0 36 28" fill="none" xmlns="http://www.w3.org/2000/svg">
<g clip-path="url(#clip0_7010_1765)">
<path fill-rule="evenodd" clip-rule="evenodd" d="M34.5345 19.9661C34.3269 20.7475 33.0494 24.2652 32.6022 25.6639C32.1844 26.9702 32.3505 22.6797 31.9326 23.9861C31.8664 24.1933 30.9688 24.4066 30.7973 24.5392C30.6088 24.685 30.307 25.0235 30.0693 25.0226C28.0649 25.0125 29.6283 24.5495 27.6236 24.5392C26.6095 24.5337 26.356 24.9285 25.3416 24.9233C24.8346 24.9209 24.2006 25.025 23.6935 25.0226C23.2501 25.0205 19.9215 24.4262 19.5012 24.3138C19.7018 23.2002 21.247 26.1099 21.5645 25.0226C21.8918 23.9031 19.8501 25.4704 20.1772 24.3509C20.8379 22.0887 21.4987 19.8264 22.1596 17.5642C25.8816 17.5642 29.6035 17.5635 33.3254 17.5632C33.7206 17.5632 34.2135 17.6347 34.5092 17.8985C34.9305 18.2748 34.7991 18.8888 34.6675 19.4397C34.6255 19.6155 34.5808 19.7912 34.5345 19.9661Z" fill="#C0131B"/>
<path fill-rule="evenodd" clip-rule="evenodd" d="M2.36068 19.9658C2.56839 20.7478 3.84547 24.2652 4.29309 25.6637C4.71085 26.97 4.54474 22.6795 4.96253 23.9859C5.02878 24.1933 5.92637 24.4063 6.09789 24.5394C6.28611 24.6852 6.58781 25.0238 6.82562 25.0224C8.82992 25.0122 7.26688 24.5495 9.27118 24.5394C10.2856 24.5342 10.5391 24.9285 11.5535 24.923C12.0605 24.9209 12.6945 25.0247 13.2016 25.0224C13.645 25.0203 16.9736 24.4259 17.3939 24.3136C17.1933 23.1999 15.6478 26.1096 15.3306 25.0224C15.0036 23.9033 17.045 25.4702 16.7179 24.3506C16.0572 22.0889 15.3964 19.8266 14.7357 17.5644C11.0135 17.5639 7.29155 17.5632 3.56962 17.5632C3.17439 17.5632 2.68141 17.6347 2.38606 17.8982C1.96452 18.2744 2.0961 18.8885 2.22768 19.4392C2.26974 19.6157 2.31439 19.791 2.36068 19.9658Z" fill="#C0131B"/>
<path fill-rule="evenodd" clip-rule="evenodd" d="M30.8873 15.3637C30.8873 22.3422 25.2534 27.9997 18.3036 27.9997C11.3541 27.9997 5.72017 22.3422 5.72017 15.3637C5.72017 8.38515 11.3541 2.72814 18.3036 2.72814C25.2534 2.72814 30.8873 8.38515 30.8873 15.3637Z" fill="#FCD842"/>
<path fill-rule="evenodd" clip-rule="evenodd" d="M27.4256 6.67619C25.1913 4.63528 22.225 3.39233 18.9706 3.39233C12.0181 3.39233 6.38109 9.05265 6.38109 16.0342C6.38109 19.3018 7.61892 22.2802 9.65095 24.5242C7.22956 22.2334 5.71919 18.9734 5.71919 15.3618C5.71919 8.38774 11.3559 2.72814 18.3007 2.72814C21.8977 2.7279 25.1445 4.24455 27.4256 6.67619Z" fill="#FDE869"/>
<path fill-rule="evenodd" clip-rule="evenodd" d="M27.811 15.3638C27.811 20.6367 23.5541 24.9116 18.3027 24.9116C13.0516 24.9116 8.7946 20.6367 8.7946 15.3638C8.7946 10.0909 13.0516 5.81631 18.3027 5.81631C23.5541 5.81652 27.811 10.0909 27.811 15.3638Z" fill="#F7B500"/>
<path fill-rule="evenodd" clip-rule="evenodd" d="M25.3392 8.94302C23.6495 7.43416 21.4309 6.50408 18.9858 6.50408C13.7309 6.50408 9.47979 10.7725 9.47979 16.0495C9.47979 18.5047 10.4063 20.7327 11.9089 22.4292C9.99367 20.6858 8.7946 18.1682 8.7946 15.3619C8.7946 10.0926 13.0535 5.81631 18.3009 5.81631C21.0961 5.81607 23.603 7.01963 25.3392 8.94302Z" fill="#E28900"/>
<path fill-rule="evenodd" clip-rule="evenodd" d="M19.2921 11.1089C19.6666 11.2007 20.0052 11.3321 20.3085 11.5032C20.6121 11.6747 20.8718 11.8666 21.0879 12.0794C21.3041 12.292 21.4747 12.5157 21.5995 12.749C21.7245 12.9828 21.7903 13.2084 21.7983 13.4257C21.7983 13.5007 21.7719 13.5651 21.7172 13.6194C21.6634 13.6739 21.6035 13.701 21.5365 13.701H19.903C19.7874 13.701 19.6929 13.6845 19.6226 13.651C19.5515 13.618 19.4796 13.5673 19.4044 13.5007C19.3792 13.4757 19.3397 13.4339 19.286 13.3754C19.2321 13.3174 19.1553 13.2565 19.0557 13.1938C18.956 13.131 18.831 13.0772 18.6811 13.0307C18.5317 12.9852 18.3493 12.9621 18.1332 12.9621C17.9746 12.9621 17.8225 12.9727 17.6773 12.9934C17.5321 13.0144 17.4033 13.0477 17.2908 13.0935C17.1792 13.1397 17.0868 13.2044 17.0168 13.2877C16.9456 13.3712 16.9101 13.4757 16.9101 13.6008C16.9101 13.7258 16.9499 13.8303 17.0288 13.9141C17.1078 13.9976 17.241 14.075 17.4275 14.1458C17.6151 14.2166 17.862 14.2852 18.1694 14.352C18.4769 14.4185 18.8597 14.4981 19.317 14.5901C19.7737 14.6823 20.1737 14.7989 20.5144 14.9407C20.8544 15.0825 21.1394 15.2599 21.368 15.473C21.5971 15.6856 21.7679 15.9361 21.8793 16.224C21.9921 16.5121 22.0478 16.8521 22.0478 17.2444C22.0478 17.5951 21.9806 17.9164 21.8481 18.2088C21.7153 18.5011 21.5285 18.7597 21.287 18.985C21.0464 19.2108 20.7552 19.3984 20.414 19.5484C20.0731 19.6988 19.6997 19.807 19.2918 19.8741V20.7629C19.2918 20.8546 19.2592 20.9339 19.1924 21.0007C19.125 21.0675 19.0472 21.101 18.9558 21.101H17.322C17.2306 21.101 17.1517 21.0675 17.0847 21.0007C17.0187 20.9339 16.9853 20.8546 16.9853 20.7629V19.8363C16.5861 19.7445 16.2261 19.6131 15.9063 19.442C15.5868 19.2715 15.3121 19.0773 15.0835 18.8595C14.8553 18.6434 14.6786 18.4074 14.5536 18.1526C14.4286 17.8978 14.3619 17.6413 14.3539 17.3827C14.3539 17.3074 14.3811 17.2426 14.4352 17.1888C14.4887 17.1343 14.5496 17.1074 14.6156 17.1074H16.2494C16.3659 17.1074 16.4574 17.1218 16.5234 17.1508C16.5906 17.18 16.6564 17.2239 16.7233 17.2824C16.7567 17.3162 16.8065 17.3702 16.8726 17.445C16.9395 17.5203 17.0288 17.5974 17.1414 17.6767C17.2532 17.7565 17.3942 17.8249 17.5645 17.8839C17.7349 17.9419 17.9449 17.9712 18.1947 17.9712C18.6353 17.9712 19.0033 17.9237 19.2989 17.8272C19.5931 17.7314 19.7413 17.5583 19.7413 17.3077C19.7413 17.1824 19.6866 17.0781 19.579 16.9946C19.4704 16.9113 19.3092 16.8337 19.093 16.7629C18.8769 16.6921 18.5998 16.6232 18.2638 16.5562C17.9269 16.4897 17.53 16.4061 17.0725 16.3059C16.2158 16.1221 15.5908 15.8153 15.196 15.3857C14.8015 14.9553 14.6034 14.382 14.6034 13.6638C14.6034 13.3717 14.6575 13.0897 14.766 12.8188C14.8736 12.547 15.0299 12.2993 15.2338 12.0733C15.4366 11.8482 15.6864 11.6521 15.9818 11.4848C16.2769 11.3182 16.6105 11.1887 16.9853 11.0969V10.1703C16.9853 10.0788 17.0187 9.9993 17.0847 9.93229C17.1517 9.86528 17.2306 9.832 17.322 9.832H18.9558C19.0472 9.832 19.1252 9.86528 19.1924 9.93229C19.2592 9.99906 19.2918 10.0786 19.2918 10.1703L19.2921 11.1089Z" fill="#E28900"/>
<path fill-rule="evenodd" clip-rule="evenodd" d="M18.9855 10.8011C19.3601 10.8929 19.6991 11.0243 20.0025 11.1959C20.3056 11.3669 20.5654 11.5587 20.7816 11.7718C20.9978 11.9844 21.1681 12.2081 21.2932 12.4414C21.4177 12.6752 21.4837 12.9008 21.4919 13.1181C21.4919 13.1931 21.4656 13.2578 21.4106 13.3118C21.3571 13.3663 21.2972 13.3932 21.2302 13.3932H19.5962C19.4806 13.3932 19.3864 13.3769 19.3163 13.3434C19.2454 13.3104 19.1732 13.2597 19.098 13.1931C19.0727 13.1681 19.033 13.1264 18.9794 13.0679C18.9256 13.0093 18.8483 12.9489 18.7489 12.8866C18.6497 12.8236 18.5247 12.7698 18.3746 12.7234C18.2254 12.6783 18.0428 12.6547 17.8266 12.6547C17.6683 12.6547 17.516 12.6653 17.371 12.6863C17.2258 12.7071 17.097 12.7401 16.9845 12.7859C16.8727 12.8321 16.7805 12.8973 16.7103 12.9801C16.6393 13.0636 16.6038 13.1681 16.6038 13.2934C16.6038 13.4185 16.6435 13.5225 16.7225 13.606C16.8014 13.6898 16.9347 13.7672 17.1212 13.838C17.3092 13.9088 17.5557 13.9774 17.863 14.0442C18.1706 14.111 18.5532 14.1902 19.0109 14.2823C19.4677 14.3745 19.8674 14.4915 20.2083 14.6329C20.5483 14.7747 20.8335 14.9521 21.0615 15.1652C21.2913 15.3778 21.4616 15.6281 21.5733 15.9162C21.6863 16.2043 21.7417 16.5445 21.7417 16.9366C21.7417 17.2872 21.675 17.6084 21.5418 17.9009C21.4088 18.1928 21.2222 18.4519 20.9807 18.6772C20.74 18.9025 20.4489 19.0906 20.1077 19.2406C19.7665 19.3909 19.3934 19.4992 18.9853 19.5662V20.455C18.9853 20.5468 18.9531 20.6266 18.8859 20.6931C18.8191 20.7599 18.7409 20.7939 18.6497 20.7939H17.0157C16.9246 20.7939 16.8454 20.7599 16.7782 20.6931C16.7124 20.6266 16.6788 20.5471 16.6788 20.455V19.5285C16.2803 19.4367 15.9198 19.3053 15.6003 19.1342C15.2805 18.9636 15.0056 18.7695 14.7774 18.5522C14.549 18.3356 14.3725 18.0996 14.2475 17.8448C14.1228 17.59 14.056 17.3335 14.0478 17.0749C14.0478 16.9996 14.0748 16.9347 14.1289 16.8805C14.1827 16.8262 14.2436 16.7993 14.3093 16.7993H15.9433C16.0601 16.7993 16.151 16.8139 16.2173 16.8434C16.284 16.8722 16.3501 16.9159 16.417 16.9746C16.4504 17.0081 16.5002 17.0624 16.566 17.1372C16.6332 17.2122 16.7223 17.2901 16.835 17.3689C16.9467 17.4486 17.0876 17.5171 17.2582 17.576C17.4286 17.6341 17.6389 17.6638 17.8884 17.6638C18.329 17.6638 18.6969 17.6155 18.9926 17.5194C19.2867 17.4236 19.435 17.2504 19.435 16.9999C19.435 16.8746 19.38 16.7708 19.2724 16.6868C19.1638 16.6032 19.0024 16.5259 18.7865 16.4551C18.5701 16.3838 18.2933 16.3154 17.9575 16.2489C17.6203 16.1821 17.2237 16.0986 16.7662 15.9983C15.9095 15.815 15.2847 15.5077 14.8897 15.0781C14.495 14.648 14.2969 14.0744 14.2969 13.3559C14.2969 13.0641 14.3509 12.7824 14.4595 12.5113C14.5669 12.2399 14.7233 11.9917 14.9273 11.7657C15.1301 11.5406 15.3799 11.3445 15.675 11.1775C15.9704 11.0109 16.304 10.8813 16.6786 10.7893V9.86231C16.6786 9.77075 16.7122 9.69124 16.7779 9.62423C16.8451 9.55771 16.9241 9.52397 17.0155 9.52397H18.6495C18.7407 9.52397 18.8189 9.55771 18.8857 9.62423C18.9529 9.691 18.985 9.77053 18.985 9.86231V10.8011H18.9855Z" fill="#FCD842"/>
<path fill-rule="evenodd" clip-rule="evenodd" d="M33.3273 17.5633C33.778 17.5584 34.5843 17.6912 34.696 18.2436C34.7426 18.4746 34.4863 19.0784 33.8348 19.0784C33.7904 19.0784 2.96521 19.0748 2.96521 19.0748L1.00484 25.707C1.00484 25.707 0.818269 27.2014 2.04811 27.2014C8.58267 27.2014 29.6868 27.2019 29.6868 27.2027H31.0606C31.9157 27.2027 32.6652 26.633 32.8968 25.807C33.4888 23.6944 34.5245 19.9384 34.6758 19.4662C35.0226 18.384 35.0089 17.5593 33.3273 17.5633Z" fill="#E4081C"/>
<path fill-rule="evenodd" clip-rule="evenodd" d="M2.16643 18.2161C2.16643 18.2161 1.85909 19.0497 4.34837 19.0747C3.24189 23.1575 2.09899 27.201 2.09899 27.201H1.36471C0.495782 27.201 -0.132532 26.3668 0.10432 25.5271L2.16643 18.2161Z" fill="#E4081C"/>
<path fill-rule="evenodd" clip-rule="evenodd" d="M4.83344 24.1094C5.41312 24.1094 5.88047 23.9513 6.26254 23.4825L5.63776 22.8822C5.4223 23.1439 5.18403 23.2477 4.93707 23.2477C4.54607 23.2477 4.28995 22.9995 4.28995 22.6295C4.28995 22.0656 4.64054 21.6685 5.13939 21.6685C5.42698 21.6685 5.63375 21.8042 5.76839 22.0385L6.5323 21.4387C6.30319 21.0324 5.80881 20.8068 5.20659 20.8068C4.04277 20.8068 3.2206 21.5874 3.2206 22.6975C3.22036 23.5362 3.85832 24.1094 4.83344 24.1094ZM8.73796 24.0372L8.63482 23.4867H7.43506L7.12043 24.0372H6.00173L8.00558 20.8786H9.04814L9.79417 24.0372H8.73796ZM7.87094 22.7199H8.48656L8.33358 21.9118L7.87094 22.7199ZM11.2139 24.1094C12.1937 24.1094 12.8049 23.6356 12.8049 22.9318C12.8049 21.9573 11.3039 22.1784 11.3039 21.8308C11.3039 21.7225 11.4566 21.6185 11.7668 21.6185C12.0722 21.6185 12.3777 21.6952 12.6296 21.8533L13.0116 21.077C12.7193 20.901 12.3016 20.8064 11.8342 20.8064C10.8414 20.8064 10.2434 21.2757 10.2434 21.9932C10.2434 22.9721 11.7397 22.7782 11.7397 23.112C11.7397 23.225 11.5959 23.2973 11.322 23.2973C10.9716 23.2973 10.6119 23.2071 10.2615 23.004L9.85243 23.7889C10.1537 23.9742 10.6523 24.1094 11.2139 24.1094ZM15.5862 20.8786H16.6466L16.0176 24.0372H14.9572L15.1908 22.873H14.2112L13.9776 24.0372H12.917L13.5462 20.8786H14.6066L14.382 21.9977H15.3616L15.5862 20.8786ZM20.7401 22.4129C21.086 22.264 21.3017 21.9979 21.3017 21.6319C21.3017 21.1539 20.9196 20.8786 20.1738 20.8786H18.5067L17.8777 24.0372H19.693C20.4971 24.0372 21.1623 23.7302 21.1623 23.0311C21.1623 22.7423 21.0098 22.53 20.7401 22.4129ZM19.9177 21.6232C20.093 21.6232 20.1964 21.6862 20.1964 21.8172C20.1964 21.9885 20.0885 22.0925 19.846 22.0925H19.3068L19.401 21.6232H19.9177ZM19.7516 23.2925H19.0685L19.1674 22.7961H19.8502C19.9896 22.7961 20.1108 22.8638 20.1108 23.0037C20.1108 23.1979 19.9583 23.2925 19.7516 23.2925ZM23.7461 24.0372L23.6427 23.4867H22.4432L22.1285 24.0372H21.0096L23.0137 20.8786H24.0562L24.8023 24.0372H23.7461ZM22.8788 22.7199H23.4944L23.3417 21.9118L22.8788 22.7199ZM26.7161 24.1094C27.2961 24.1094 27.7633 23.9513 28.1453 23.4825L27.5207 22.8822C27.305 23.1439 27.067 23.2477 26.8197 23.2477C26.4287 23.2477 26.1726 22.9995 26.1726 22.6295C26.1726 22.0656 26.5232 21.6685 27.0218 21.6685C27.3091 21.6685 27.5161 21.8042 27.6507 22.0385L28.4145 21.4387C28.1854 21.0324 27.6911 20.8068 27.0891 20.8068C25.9252 20.8068 25.1028 21.5874 25.1028 22.6975C25.1033 23.5362 25.7412 24.1094 26.7161 24.1094ZM32.131 20.8786L30.5538 22.3181L31.5785 24.0372H30.3969L29.7585 23.0085L29.4621 23.2838L29.3137 24.0372H28.2713L28.9005 20.8786H29.9429L29.7181 21.9977L30.9135 20.8786H32.131Z" fill="white"/>
<path fill-rule="evenodd" clip-rule="evenodd" d="M33.3887 16.9708H28.9827C28.686 16.9708 28.4744 16.6172 28.5635 16.2696C28.6214 16.045 28.791 15.8921 28.9827 15.8921H33.3887C33.6859 15.8921 33.8972 16.246 33.8079 16.5933C33.7505 16.8182 33.5806 16.9708 33.3887 16.9708Z" fill="#E4081C"/>
<path fill-rule="evenodd" clip-rule="evenodd" d="M35.799 16.4527C35.799 16.7548 35.5551 16.9994 35.2549 16.9994C34.9541 16.9994 34.7105 16.7548 34.7105 16.4527C34.7105 16.151 34.9541 15.9063 35.2549 15.9063C35.5551 15.9065 35.799 16.1512 35.799 16.4527Z" fill="#E4081C"/>
<path fill-rule="evenodd" clip-rule="evenodd" d="M31.8501 6.26449L31.874 6.25954C31.037 6.08045 30.3933 5.40541 30.2519 4.55766L30.187 4.17118L30.127 4.53101C29.9848 5.37946 29.3406 6.05425 28.5025 6.2331L28.4782 6.2383C29.3158 6.41714 29.959 7.0917 30.1009 7.93944L30.1658 8.32641L30.2258 7.96634C30.3677 7.11814 31.0117 6.44334 31.8501 6.26449Z" fill="#F7B500"/>
<path fill-rule="evenodd" clip-rule="evenodd" d="M13.7638 1.42393L13.7803 1.42039C13.2109 1.2984 12.7732 0.83949 12.6768 0.262842L12.6329 0L12.5918 0.244675C12.4952 0.82156 12.0572 1.28071 11.4872 1.40222L11.4708 1.40576C12.0403 1.52751 12.4778 1.98666 12.5742 2.56283L12.6181 2.82615L12.659 2.58123C12.7558 2.00412 13.1938 1.5452 13.7638 1.42393Z" fill="#F7B500"/>
</g>
<defs>
<clipPath id="clip0_7010_1765">
<rect width="35.6457" height="27.8733" fill="white" transform="scale(1.00454)"/>
</clipPath>
</defs>
</svg>
