<svg width="25" height="24" viewBox="0 0 25 24" fill="none" xmlns="http://www.w3.org/2000/svg">
<g clip-path="url(#clip0_7010_2157)">
<path d="M2.83148 0.705566H21.8491C22.3535 0.705566 22.8372 0.905951 23.1939 1.26263C23.5506 1.61931 23.751 2.10308 23.751 2.6075V21.6254C23.751 22.1297 23.5506 22.6135 23.194 22.9701C22.8373 23.3267 22.3536 23.5271 21.8492 23.5271H2.83121C2.32689 23.5271 1.84323 23.3268 1.48663 22.9702C1.13002 22.6136 0.929688 22.1299 0.929688 21.6256V2.60736C0.929688 2.35761 0.978872 2.11032 1.07445 1.87958C1.17002 1.64884 1.31011 1.43919 1.4867 1.26259C1.66331 1.08599 1.87296 0.945904 2.1037 0.850331C2.33444 0.754759 2.58173 0.705566 2.83148 0.705566Z" fill="#FDB913"/>
<path d="M21.8495 0.705735C22.3538 0.705888 22.8375 0.90633 23.194 1.26299C23.5506 1.61965 23.751 2.10333 23.751 2.60767V21.6255C23.751 22.1299 23.5507 22.6135 23.194 22.9702C22.8375 23.3268 22.3538 23.5272 21.8495 23.5273H2.83165C2.58189 23.5273 2.33456 23.4782 2.1038 23.3827C1.87303 23.2871 1.66335 23.147 1.48674 22.9704C1.31013 22.7938 1.17006 22.5841 1.0745 22.3534C0.978949 22.1226 0.929794 21.8753 0.929854 21.6255V2.60767C0.929802 2.3579 0.978964 2.11057 1.07451 1.8798C1.17007 1.64903 1.31015 1.43935 1.48676 1.26274C1.66336 1.08612 1.87304 0.94602 2.1038 0.850447C2.33456 0.754875 2.58188 0.705703 2.83165 0.705735H21.8495ZM21.8495 0.303223H2.83165C2.22069 0.303885 1.63494 0.546891 1.20294 0.978915C0.770937 1.41094 0.527969 1.99671 0.527344 2.60767V21.6255C0.528019 22.2364 0.771012 22.8222 1.203 23.2542C1.635 23.6862 2.22072 23.9291 2.83165 23.9298H21.8495C22.4604 23.9291 23.0461 23.6861 23.478 23.2541C23.9099 22.8221 24.1529 22.2364 24.1535 21.6255V2.60767C24.1529 1.99674 23.91 1.411 23.4781 0.978975C23.0461 0.546943 22.4604 0.303918 21.8495 0.303223Z" fill="white"/>
<path d="M13.6728 12.3631L13.6709 8.27709L14.7375 8.02397V8.55962C14.7375 8.55962 15.0138 7.85522 15.6549 7.69172C15.7506 7.66082 15.8525 7.65399 15.9515 7.67177V8.71434C15.7595 8.71682 15.5697 8.75634 15.3927 8.83067C14.9985 8.98629 14.8002 9.32589 14.8002 9.84429L14.8009 12.1005L13.6728 12.3631Z" fill="#231F20"/>
<path d="M8.05029 13.6918C8.05029 13.6918 7.87689 13.4318 7.87689 12.5124V10.478L7.32812 10.6085V9.77043L7.87817 9.64053V8.72688L9.01217 8.45898V9.37263L9.81354 9.18228V10.0194L9.01217 10.2096C9.01217 10.2096 9.01097 11.8765 9.01217 12.2813C9.01217 13.2233 9.26222 13.4041 9.26222 13.4041L8.05029 13.6918Z" fill="#231F20"/>
<path d="M9.93164 11.2607C9.93164 10.5344 10.0351 10.0044 10.2571 9.5977C10.5214 9.11507 10.9546 8.80052 11.5858 8.65682C12.83 8.37392 13.279 9.11035 13.2616 10.0978C13.255 10.451 13.2566 10.623 13.2566 10.623L11.0647 11.1382V11.1736C11.0647 11.8635 11.2094 12.1909 11.6466 12.0982C12.0243 12.0185 12.1294 11.7819 12.1592 11.4893C12.1641 11.4422 12.1664 11.3222 12.1664 11.3222L13.1932 11.0761C13.1932 11.0761 13.1956 11.1602 13.1941 11.2545C13.1852 11.6466 13.0712 12.6191 11.644 12.9566C10.2921 13.2775 9.93164 12.4519 9.93164 11.2607ZM11.6314 9.41792C11.2682 9.50035 11.0777 9.85667 11.0695 10.4469L12.172 10.1843C12.174 10.1576 12.1742 10.0988 12.174 10.0066C12.172 9.56095 12.0343 9.32575 11.6314 9.41792Z" fill="#231F20"/>
<path d="M19.7897 8.87133C19.7473 7.62693 20.0701 6.63926 21.4585 6.32474C22.3433 6.12368 22.6794 6.35389 22.8496 6.57636C23.0131 6.78866 23.0764 7.07499 23.0764 7.47601L23.0773 7.54961L21.9911 7.80776C21.9911 7.80776 21.9903 7.66136 21.9903 7.65656C21.9911 7.18101 21.8589 7.00016 21.5134 7.08665C21.1027 7.18982 20.9368 7.57976 20.9368 8.35496C20.9368 8.63013 20.938 8.67948 20.938 8.71661C20.938 9.50441 21.0456 9.86508 21.5191 9.76593C21.9297 9.68111 21.9859 9.32043 21.9926 9.00431C21.9934 8.95466 21.9955 8.79581 21.9955 8.79581L23.08 8.53961C23.08 8.53961 23.0811 8.61971 23.0811 8.70873C23.0784 9.74178 22.5339 10.3929 21.5139 10.6302C20.1085 10.9596 19.8334 10.1476 19.7897 8.87133Z" fill="#231F20"/>
<path d="M16.0352 10.6138C16.0352 9.66726 16.5896 9.36786 17.4242 9.02256C18.1748 8.71213 18.191 8.55801 18.1941 8.28823C18.1983 8.06113 18.093 7.86688 17.7194 7.96213C17.5948 7.98726 17.4823 8.05371 17.4002 8.15076C17.3181 8.24773 17.2712 8.36968 17.2671 8.49673C17.261 8.56641 17.2586 8.63646 17.2601 8.70643L16.2077 8.95491C16.2006 8.74521 16.2251 8.53566 16.2804 8.33323C16.4486 7.76721 16.9478 7.38638 17.8095 7.18695C18.929 6.92896 19.3023 7.42027 19.3037 8.18451V9.99426C19.3037 10.8695 19.466 10.9978 19.466 10.9978L18.433 11.2422C18.376 11.1228 18.3297 10.9987 18.2945 10.8711C18.2945 10.8711 18.0683 11.4411 17.2883 11.6243C16.469 11.8175 16.0352 11.3098 16.0352 10.6138ZM18.1869 9.32128C18.0128 9.44331 17.829 9.55101 17.6373 9.64311C17.293 9.81133 17.1374 10.0189 17.1374 10.3386C17.1374 10.6154 17.3088 10.7972 17.6205 10.7202C17.9549 10.6359 18.1869 10.324 18.1869 9.89053V9.32128Z" fill="#231F20"/>
<path d="M2.12077 16.5558C2.00287 16.5557 1.88718 16.5237 1.7859 16.4634C1.68461 16.403 1.60147 16.3165 1.54523 16.2128C1.489 16.1093 1.46173 15.9923 1.46632 15.8745C1.47091 15.7567 1.50717 15.6423 1.5713 15.5434L1.57862 15.5339L1.59096 15.5306L3.13349 15.1665V16.3379L3.10949 16.3436C2.75958 16.4277 2.34134 16.5236 2.25526 16.5419C2.21104 16.5512 2.16596 16.5559 2.12077 16.5558Z" fill="#231F20"/>
<path d="M2.12077 18.0543C1.9472 18.0544 1.7807 17.9856 1.65789 17.8629C1.53508 17.7402 1.466 17.5738 1.46582 17.4003C1.46546 17.2738 1.50213 17.15 1.5713 17.0441L1.57862 17.0331L1.59095 17.03L3.13349 16.666V17.8374L3.10949 17.8437C2.75958 17.9276 2.34134 18.0246 2.25525 18.0417C2.21094 18.0504 2.1659 18.0546 2.12077 18.0543Z" fill="#231F20"/>
<path d="M2.12077 19.5561C1.94715 19.556 1.78066 19.487 1.65786 19.3642C1.53507 19.2415 1.466 19.075 1.46583 18.9014C1.46534 18.7749 1.50201 18.6511 1.5713 18.5453L1.57862 18.5334L3.13349 18.167V19.3385L3.10949 19.3447C2.73993 19.4337 2.32955 19.5264 2.25526 19.5428C2.21098 19.5516 2.16593 19.5561 2.12077 19.5561Z" fill="#231F20"/>
<path d="M1.93888 15.1204L1.93848 8.56565L3.13354 8.2832V14.8378L1.93888 15.1204Z" fill="#231F20"/>
<path d="M4.91504 14.5625C4.91504 14.367 4.83736 14.1794 4.69909 14.0412C4.56082 13.9029 4.37328 13.8252 4.17773 13.8252C3.98219 13.8252 3.79465 13.9029 3.65638 14.0412C3.51811 14.1794 3.44043 14.367 3.44043 14.5625L3.44165 20.6889C3.4423 21.2179 3.65267 21.7251 4.02664 22.0993C4.4006 22.4736 4.90767 22.6843 5.43672 22.6853C5.99487 22.6853 7.52387 22.6825 7.52387 22.6825L7.52455 20.1268C7.52492 18.7304 7.52522 17.3091 7.52522 17.2767C7.52537 17.1178 7.48634 16.9613 7.41154 16.8211C7.33673 16.681 7.22848 16.5614 7.09639 16.4731L5.23621 15.2098C5.23621 15.2098 5.2358 17.9526 5.2358 18.0787C5.2358 18.1207 5.21909 18.1611 5.18935 18.1909C5.1596 18.2206 5.11925 18.2373 5.07718 18.2373C5.03512 18.2373 4.99477 18.2206 4.96502 18.1909C4.93528 18.1611 4.91857 18.1207 4.91857 18.0787C4.91857 18.0479 4.91504 14.9414 4.91504 14.5625Z" fill="#231F20"/>
<path d="M5.91121 9.99172C5.68517 10.0442 5.47312 10.1449 5.28954 10.2868C5.10597 10.4287 4.95519 10.6086 4.84752 10.8142V10.3534L3.77148 10.6081L3.77271 13.5499C3.96145 13.4753 4.16717 13.4543 4.36711 13.4893C4.56705 13.5242 4.75344 13.6138 4.90567 13.748V11.8486C4.90567 11.3935 5.13208 11.0301 5.45555 10.9588C5.6989 10.9054 5.90212 10.9924 5.90212 11.4258L5.90294 14.1972L7.03632 13.9315V10.9997C7.03632 10.2889 6.7626 9.79207 5.91121 9.99172Z" fill="#231F20"/>
<path d="M22.378 5.79664C22.2394 5.79676 22.1038 5.75577 21.9885 5.67885C21.8732 5.60193 21.7834 5.49253 21.7303 5.36451C21.6771 5.2365 21.6632 5.09559 21.6901 4.95965C21.7171 4.8237 21.7839 4.69881 21.8818 4.6008C21.9799 4.50277 22.1047 4.43601 22.2406 4.40897C22.3765 4.38193 22.5175 4.39581 22.6455 4.44888C22.7736 4.50193 22.883 4.59177 22.96 4.70704C23.0369 4.82231 23.0779 4.95781 23.0779 5.09641C23.0777 5.28202 23.0039 5.45998 22.8727 5.59125C22.7415 5.72253 22.5635 5.79639 22.378 5.79664ZM22.378 4.48363C22.2568 4.4836 22.1383 4.51951 22.0375 4.5868C21.9368 4.6541 21.8582 4.74977 21.8119 4.8617C21.7654 4.97364 21.7533 5.09682 21.7769 5.21567C21.8005 5.33451 21.8588 5.44369 21.9445 5.52939C22.0302 5.61509 22.1393 5.67346 22.2581 5.69712C22.377 5.72079 22.5001 5.70869 22.6121 5.66234C22.7241 5.616 22.8198 5.53749 22.8871 5.43676C22.9545 5.33602 22.9904 5.21758 22.9905 5.09641C22.9903 4.93398 22.9258 4.77823 22.8109 4.66335C22.6961 4.54847 22.5403 4.48383 22.378 4.48363Z" fill="#231F20"/>
<path d="M22.123 4.67886H22.425C22.4545 4.6757 22.4843 4.67923 22.5123 4.6892C22.5403 4.69917 22.5656 4.71531 22.5865 4.73643C22.6073 4.75755 22.6231 4.78309 22.6327 4.81118C22.6424 4.83926 22.6456 4.86915 22.642 4.89862C22.642 5.00952 22.5928 5.09479 22.4995 5.1093V5.11092C22.5844 5.1196 22.629 5.16637 22.6333 5.28663C22.635 5.34085 22.6358 5.4081 22.6384 5.46042C22.6384 5.47515 22.6421 5.48963 22.6492 5.50254C22.6563 5.51544 22.6665 5.52637 22.6789 5.53431H22.5246C22.5099 5.5117 22.5019 5.48537 22.5016 5.45839C22.4968 5.40729 22.498 5.35902 22.4957 5.29692C22.4935 5.20365 22.4648 5.16285 22.3711 5.16285H22.2595V5.53431H22.123V4.67886ZM22.3687 5.05981C22.3873 5.06151 22.4059 5.05908 22.4234 5.05267C22.4409 5.04627 22.4568 5.03607 22.4698 5.0228C22.4829 5.00953 22.4929 4.99353 22.4989 4.97595C22.5051 4.95836 22.5072 4.93964 22.5052 4.92112C22.5052 4.82988 22.4658 4.78189 22.3759 4.78189H22.2595V5.05981H22.3687Z" fill="#231F20"/>
</g>
<defs>
<clipPath id="clip0_7010_2157">
<rect width="24.75" height="24" fill="white"/>
</clipPath>
</defs>
</svg>
