<svg width="28" height="28" viewBox="0 0 28 28" fill="none" xmlns="http://www.w3.org/2000/svg">
<g clip-path="url(#clip0_7010_1807)">
<path d="M13.9829 27.9998C10.5124 27.9955 7.16719 26.7025 4.59619 24.3713C2.02519 22.0402 0.41166 18.8373 0.0685993 15.3838C-0.274461 11.9303 0.677414 8.47258 2.73955 5.68121C4.8017 2.88985 7.82711 0.963916 11.2289 0.277009C14.6308 -0.409901 18.1664 0.191176 21.1501 1.96365C24.1338 3.73612 26.3528 6.55363 27.3766 9.86962C28.4005 13.1856 28.1563 16.7637 26.6913 19.9098C25.2263 23.0559 22.6449 25.5457 19.448 26.8962C17.7191 27.6282 15.8603 28.0035 13.9829 27.9998ZM13.9829 1.40469C11.499 1.40469 9.07085 2.14124 7.00561 3.5212C4.94035 4.90117 3.33067 6.86257 2.38013 9.15733C1.4296 11.4522 1.18088 13.9773 1.66547 16.4134C2.15004 18.8495 3.34615 21.0873 5.10251 22.8436C6.85888 24.6 9.09659 25.7961 11.5327 26.2807C13.9689 26.7653 16.4941 26.5166 18.7888 25.5661C21.0836 24.6155 23.045 23.0058 24.425 20.9406C25.8049 18.8753 26.5415 16.4472 26.5415 13.9633C26.5384 10.6335 25.2143 7.44099 22.8597 5.08646C20.5052 2.73192 17.3127 1.40779 13.9829 1.40469Z" fill="#F5B923"/>
<path d="M13.9885 23.3331C11.6748 23.3303 9.44473 22.4683 7.73071 20.9141C6.01671 19.36 4.94103 17.2247 4.71232 14.9225C4.48361 12.6202 5.1182 10.3149 6.49296 8.45404C7.86772 6.59315 9.88464 5.3092 12.1525 4.85126C14.4204 4.39332 16.7775 4.79404 18.7666 5.97569C20.7558 7.15733 22.2351 9.03566 22.9177 11.2463C23.6003 13.457 23.4374 15.8424 22.4607 17.9398C21.4841 20.0372 19.7632 21.697 17.632 22.5974C16.4794 23.0853 15.2401 23.3356 13.9885 23.3331ZM13.9885 5.60305C12.3326 5.60305 10.7138 6.09408 9.33701 7.01405C7.96012 7.93403 6.88703 9.24162 6.25334 10.7715C5.61965 12.3014 5.45384 13.9848 5.77689 15.6088C6.09995 17.233 6.89735 18.7248 8.06823 19.8957C9.23917 21.0666 10.731 21.864 12.3551 22.1871C13.9791 22.5101 15.6626 22.3443 17.1924 21.7106C18.7223 21.0769 20.0299 20.0038 20.9499 18.627C21.8699 17.2501 22.3609 15.6314 22.3609 13.9755C22.3589 11.7556 21.4761 9.62724 19.9064 8.05754C18.3367 6.48787 16.2083 5.60511 13.9885 5.60305Z" fill="#F5B923" stroke="#F5B923" stroke-width="0.774259"/>
<path d="M17.6962 13.3529C18.158 13.6607 18.158 14.3393 17.6962 14.6472L12.8762 17.8606C12.3593 18.2051 11.667 17.8346 11.667 17.2134V10.7866C11.667 10.1654 12.3593 9.79498 12.8762 10.1395L17.6962 13.3529Z" fill="#F5B923"/>
</g>
<defs>
<clipPath id="clip0_7010_1807">
<rect width="27.8733" height="27.8733" fill="white" transform="scale(1.00454)"/>
</clipPath>
</defs>
</svg>
