<svg width="28" height="28" viewBox="0 0 28 28" fill="none" xmlns="http://www.w3.org/2000/svg">
<g clip-path="url(#clip0_7010_1824)">
<path d="M26.9026 8.56685C25.5552 5.36699 23.0669 2.78199 19.9207 1.31365C16.7746 -0.154694 13.1951 -0.401608 9.87708 0.62084C6.55914 1.64328 3.73945 3.86215 1.96548 6.84665C0.191494 9.8312 -0.410224 13.3683 0.277145 16.7716C0.964515 20.1748 2.89194 23.2012 5.6852 25.2632C8.47849 27.3252 11.9383 28.2758 15.393 27.9303C18.8477 27.5848 22.0508 25.9679 24.3804 23.3937C26.71 20.8193 28 17.4712 27.9998 13.9993C28.002 12.1332 27.6289 10.2857 26.9026 8.56685ZM26.5296 13.9993C26.5299 15.0504 26.3973 16.0975 26.1348 17.1153L23.3467 16.2097C23.6938 14.7294 23.6878 13.1881 23.3293 11.7104L26.116 10.8048C26.3909 11.8473 26.53 12.9211 26.5296 13.9993ZM14.0478 22.8264C12.3016 22.8279 10.5943 22.3114 9.1417 21.3424C7.68913 20.3733 6.55659 18.9951 5.88737 17.3824C5.21814 15.7695 5.0423 13.9944 5.38208 12.2816C5.72186 10.5688 6.562 8.99532 7.79623 7.76007C9.0304 6.52483 10.6033 5.6834 12.3158 5.34221C14.0283 5.00102 15.8036 5.1754 17.4169 5.84331C19.0303 6.51121 20.4094 7.6426 21.3796 9.09441C22.3498 10.5462 22.8677 12.2531 22.8677 13.9993C22.8655 16.3397 21.9347 18.5835 20.2798 20.2385C18.6248 21.8934 16.381 22.8242 14.0406 22.8264H14.0478ZM1.56607 13.9993C1.56592 12.9216 1.70495 11.8483 1.9797 10.8063L4.76634 11.7119C4.4078 13.1895 4.40183 14.7308 4.74892 16.2112L1.95938 17.1168C1.69225 16.099 1.55523 15.0515 1.55155 13.9993H1.56607ZM25.6704 9.41151L22.8852 10.3171C22.4036 9.16566 21.701 8.11986 20.817 7.23881C20.6292 7.05207 20.4357 6.87355 20.2365 6.70325L21.9418 4.33608C23.5906 5.68514 24.8688 7.43182 25.6558 9.41151H25.6704ZM20.7647 3.47107L19.0448 5.83969C17.7571 5.04822 16.2984 4.5769 14.7909 4.46525V1.53349C16.9104 1.65871 18.9623 2.32585 20.7503 3.47107H20.7647ZM13.3192 1.53349V4.46525C11.8118 4.5769 10.3531 5.04822 9.06525 5.83969L7.34541 3.47107C9.1333 2.32585 11.1852 1.65871 13.3047 1.53349H13.3192ZM6.15383 4.33463L7.86351 6.70325C7.66326 6.87355 7.46974 7.05207 7.283 7.23881C6.39932 8.11955 5.69669 9.16488 5.2148 10.3157L2.42964 9.41151C3.21592 7.43215 4.49245 5.68515 6.13932 4.33463H6.15383ZM2.41077 18.5145L5.19593 17.6102C5.67487 18.7891 6.38444 19.8603 7.283 20.7611C7.45909 20.9373 7.64051 21.1052 7.82727 21.2648L6.10594 23.6335C4.45325 22.2712 3.17625 20.5092 2.39624 18.5145H2.41077ZM7.283 24.5014L9.00287 22.1342C10.3012 22.9402 11.775 23.4207 13.2989 23.5348V26.4665C11.1574 26.3428 9.08461 25.6656 7.283 24.5014ZM14.7691 26.4665V23.5348C16.2931 23.4219 17.767 22.9419 19.0652 22.1356L20.785 24.5028C18.9848 25.6653 16.9143 26.3418 14.7749 26.4665H14.7691ZM21.9723 23.6349L20.2509 21.2662C20.4377 21.1047 20.6196 20.9363 20.7967 20.7611C21.6991 19.8615 22.4123 18.7901 22.8939 17.6102L25.6791 18.516C24.9019 20.5099 23.6279 22.272 21.9781 23.6349H21.9723Z" fill="#F5B923"/>
<path d="M11.0829 10.4998C11.1982 10.4998 11.311 10.4656 11.407 10.4015C11.5029 10.3374 11.5776 10.2463 11.6218 10.1397C11.666 10.0332 11.6775 9.91587 11.655 9.80271C11.6325 9.68954 11.5769 9.58563 11.4954 9.50404C11.4138 9.42246 11.3099 9.36692 11.1967 9.34437C11.0835 9.32189 10.9662 9.3334 10.8597 9.37758C10.753 9.42176 10.662 9.4965 10.5979 9.5924C10.5338 9.68838 10.4996 9.80115 10.4996 9.9165C10.4998 10.0711 10.5613 10.2194 10.6707 10.3287C10.78 10.4381 10.9283 10.4996 11.0829 10.4998Z" fill="#F5B923"/>
<path d="M21.109 15.0551C21.3013 15.0554 21.4902 15.0031 21.655 14.9039C21.8199 14.8048 21.9544 14.6624 22.0442 14.4924C22.134 14.3223 22.1755 14.131 22.1644 13.939C22.1533 13.7471 22.0898 13.5618 21.981 13.4032C21.8721 13.2446 21.722 13.1189 21.5468 13.0394C21.3716 12.9599 21.178 12.9299 20.9869 12.9523C20.7958 12.9749 20.6146 13.0492 20.4627 13.1672C20.3108 13.2852 20.1941 13.4425 20.1252 13.622H15.4901C15.4214 13.3541 15.2818 13.1095 15.0861 12.914C14.8905 12.7184 14.6458 12.5789 14.3777 12.5103V7.87342C14.608 7.78506 14.7999 7.61898 14.9205 7.40396C15.041 7.18894 15.0823 6.93853 15.0374 6.69621C14.9924 6.45389 14.864 6.23494 14.6745 6.07735C14.4848 5.91975 14.2461 5.83348 13.9994 5.83348C13.7529 5.83348 13.514 5.91975 13.3245 6.07735C13.1349 6.23494 13.0065 6.45389 12.9615 6.69621C12.9166 6.93853 12.958 7.18894 13.0785 7.40396C13.199 7.61898 13.391 7.78506 13.6212 7.87342V12.5057C13.3531 12.5745 13.1084 12.7139 12.9127 12.9095C12.717 13.1051 12.5775 13.3496 12.5088 13.6176H7.87378C7.78527 13.3876 7.61899 13.1959 7.40384 13.0756C7.18868 12.9553 6.9382 12.9141 6.69582 12.9591C6.45345 13.0041 6.23446 13.1325 6.07686 13.3219C5.91926 13.5113 5.83299 13.75 5.83299 13.9963C5.83299 14.2427 5.91926 14.4814 6.07686 14.6708C6.23446 14.8602 6.45345 14.9886 6.69582 15.0336C6.9382 15.0786 7.18868 15.0374 7.40384 14.9171C7.61899 14.7968 7.78527 14.6051 7.87378 14.3751H12.5088C12.576 14.6439 12.7143 14.8896 12.9092 15.0866C13.1041 15.2835 13.3485 15.4243 13.6167 15.4944V20.1267C13.3865 20.2151 13.1944 20.3812 13.074 20.5962C12.9535 20.8113 12.9121 21.0616 12.9571 21.304C13.002 21.5463 13.1304 21.7652 13.32 21.9228C13.5096 22.0804 13.7484 22.1667 13.995 22.1667C14.2416 22.1667 14.4803 22.0804 14.67 21.9228C14.8595 21.7652 14.9879 21.5463 15.0329 21.304C15.0778 21.0616 15.0364 20.8113 14.916 20.5962C14.7955 20.3812 14.6035 20.2151 14.3732 20.1267V15.4944C14.6413 15.4257 14.886 15.2863 15.0817 15.0907C15.2774 14.8951 15.4169 14.6505 15.4856 14.3826H20.1207C20.198 14.5815 20.3339 14.7521 20.5103 14.8722C20.6868 14.9922 20.8955 15.056 21.109 15.0551Z" fill="#F5B923"/>
</g>
<defs>
<clipPath id="clip0_7010_1824">
<rect width="27.8733" height="27.8733" fill="white" transform="scale(1.00454)"/>
</clipPath>
</defs>
</svg>
