<svg width="40" height="40" viewBox="0 0 40 40" fill="none" xmlns="http://www.w3.org/2000/svg">
<path d="M39.9225 28.8236C39.9195 28.8008 39.9142 28.7784 39.9063 28.7568C39.9002 28.7341 39.8915 28.7124 39.8803 28.6918C39.347 27.2725 37.8965 26.1949 36.8773 25.1412C35.5093 23.7274 34.1526 22.3068 32.7411 20.9353C31.3821 19.6153 30.0012 18.313 28.5742 17.0647C29.6276 16.381 30.9052 15.552 31.1274 14.2839C31.3145 13.2183 30.6196 12.586 29.9375 11.9233L30.4426 11.3011C31.0322 12.3652 31.7341 13.3763 32.6183 14.2163C33.0309 14.6085 34.0357 15.6812 34.6489 15.1977C35.1234 14.8236 34.7691 14.3523 34.5242 13.9642C34.1249 13.3286 33.7011 12.7084 33.2448 12.1118C32.6713 11.3627 32.048 10.6463 31.3326 10.0292C31.4832 9.48695 31.361 8.89398 30.7637 8.66277C30.2544 8.4655 29.8176 8.69452 29.4253 8.98705C28.6459 7.71564 27.7854 6.47718 26.7475 5.40254C26.3893 5.03182 25.3496 3.7758 24.7637 4.24949C24.2053 4.70079 24.9121 5.58803 25.157 6.02971C25.536 6.72069 25.975 7.37702 26.469 7.9911C27.0268 8.67961 27.6758 9.30842 28.4203 9.79369L28.0835 10.0668C27.4211 9.38452 26.7887 8.68971 25.723 8.87661C24.4555 9.09895 23.6268 10.3754 22.9434 11.4289C21.3669 9.62315 19.7044 7.88644 18.0156 6.18729C16.464 4.62814 14.8795 3.08992 13.2861 1.56903C12.3181 0.645719 11.0983 -0.451771 9.67778 0.193922C8.3815 0.782363 7.73201 2.37711 7.49795 3.68895C7.24466 5.11241 7.4941 6.5758 7.82775 7.96535C8.55686 11.0011 9.85076 13.906 11.2491 16.6863C12.0934 18.3657 12.9912 20.0303 13.9808 21.6293L8.99944 27.2364C7.76112 26.2084 6.4607 25.2278 5.02895 24.4866C3.94166 23.9237 2.79833 23.4303 1.62252 24.0536C0.5641 24.6153 -0.246795 25.906 0.069045 27.1235C0.258363 27.8522 0.823408 28.527 1.26963 29.1159C1.78725 29.7941 2.34132 30.4437 2.92942 31.0616C3.63665 31.8097 4.38018 32.5333 5.16654 33.2006C4.82544 33.7927 4.29912 34.6113 4.8483 35.1605C5.39747 35.7098 6.21535 35.1846 6.80734 34.8422C7.33462 35.4622 7.89871 36.0538 8.47724 36.6249C9.64705 37.7796 10.9549 39.0085 12.4323 39.7629C13.5757 40.347 14.9156 39.7828 15.6632 38.8273C16.5148 37.739 16.2913 36.6141 15.7534 35.4504C15.0038 33.83 13.9111 32.3772 12.7735 31.0078L18.3783 26.0263C20.4504 27.3097 22.6235 28.4541 24.8262 29.4925C26.7025 30.377 28.6269 31.1841 30.6145 31.7894C32.3932 32.3314 34.3746 32.8364 36.2406 32.5234C38.0194 32.2262 40.4685 30.9886 39.9225 28.8236ZM32.2306 11.7859C32.5794 12.1963 32.906 12.6242 33.2169 13.0635C33.3903 13.3081 33.5587 13.5558 33.722 13.8067C33.8281 13.9688 34.2464 14.4548 34.2103 14.6343C34.1788 14.7916 34.243 14.6727 34.1165 14.6514C34.0684 14.6434 33.9993 14.5762 33.9594 14.5498C33.8189 14.4559 33.6826 14.3565 33.5504 14.2515C33.244 14.0059 32.9556 13.7386 32.6874 13.4516C31.9431 12.663 31.3516 11.7527 30.84 10.8005L31.0324 10.5506C31.4598 10.9342 31.8602 11.347 32.2306 11.7859ZM30.737 9.97486L30.2778 10.5736L29.5193 11.5082C29.1789 11.1681 28.8387 10.8278 28.4987 10.4875L29.1369 9.97027L29.5542 9.63154C29.6767 9.53222 29.7972 9.41027 29.9338 9.33154C30.4614 9.02744 31.0348 9.30217 30.737 9.97486ZM27.2663 8.02164C26.8552 7.56427 26.4829 7.07341 26.1533 6.55416C25.9633 6.25825 25.7848 5.95545 25.6176 5.64576C25.5731 5.56397 25.0937 4.68612 25.0691 4.72244C25.1207 4.64594 26.5942 6.10068 26.685 6.20196C27.5509 7.17074 28.2849 8.24899 28.9611 9.3571L28.9043 9.40325C28.2908 9.02968 27.7496 8.55307 27.2663 8.02164ZM8.99349 9.88627C8.14191 7.30378 7.18933 3.9033 9.01417 1.50239C9.42881 0.956773 10.0273 0.519172 10.743 0.594236C11.5319 0.676987 12.1807 1.3388 12.7297 1.85339C14.2283 3.25784 15.6966 4.70946 17.152 6.15962C19.0196 8.01996 20.854 9.92725 22.586 11.9165L15.2064 20.247C14.9338 20.5545 14.6611 20.8621 14.3885 21.1698C12.2106 17.6385 10.291 13.8211 8.99349 9.88627ZM15.5578 37.8431C15.2723 38.6015 14.5458 39.2462 13.7422 39.3912C12.8307 39.5555 12.0181 38.8487 11.334 38.3399C10.5972 37.7917 9.9054 37.1823 9.2412 36.5479C8.48493 35.8245 7.74981 35.0662 7.0806 34.2624C6.99497 34.1595 6.83235 34.1598 6.72362 34.2163L6.19249 34.4912C6.07077 34.5545 5.94977 34.62 5.82709 34.6814C5.6142 34.7874 5.60939 34.8442 5.38688 34.6217C5.1704 34.4052 5.2084 34.4224 5.30967 34.2156C5.3674 34.0977 5.42995 33.9822 5.49153 33.8658L5.79341 33.2848C5.84946 33.1771 5.84971 33.0127 5.74747 32.9275C4.94235 32.2576 4.1839 31.5231 3.46225 30.7667C2.82791 30.1032 2.21836 29.4114 1.67039 28.6737C1.16139 27.9895 0.454646 27.1772 0.618939 26.2654C0.763271 25.4619 1.40891 24.7351 2.16689 24.4495C2.86448 24.1874 3.5041 24.4241 4.14782 24.7118C5.86414 25.479 7.39235 26.6496 8.82334 27.8512C8.93954 27.949 9.12695 27.9785 9.24003 27.8512C11.0117 25.8572 12.7838 23.8631 14.5561 21.8687C17.0763 19.0236 19.5965 16.1779 22.1169 13.3317L23.1854 12.1256C23.194 12.1151 23.2021 12.104 23.2094 12.0926C23.2174 12.0841 23.2248 12.0753 23.2316 12.0659C23.4481 11.7375 23.6803 11.4178 23.9153 11.1019C24.3995 10.4507 24.8894 9.66832 25.7358 9.47613C26.6979 9.25769 27.2512 10.0752 27.8511 10.6745L29.3335 12.1552C29.9324 12.7544 30.7497 13.3099 30.5313 14.2708C30.3454 15.0887 29.6086 15.565 28.9788 16.0365C28.6394 16.2908 28.2957 16.5417 27.9418 16.7751C27.9325 16.7819 27.9236 16.7893 27.9151 16.7972C27.9037 16.8046 27.8927 16.8126 27.8821 16.8213L19.3453 24.3853L18.1392 25.4539L12.1572 30.7706C12.0309 30.8827 12.0609 31.0713 12.1572 31.1875C13.3599 32.6184 14.5292 34.1465 15.2963 35.8632C15.584 36.507 15.821 37.144 15.5578 37.8431ZM35.4753 32.0227C33.7047 32.1267 31.8579 31.5837 30.1932 31.0391C26.8171 29.9348 23.5984 28.334 20.5103 26.5916C19.949 26.2753 19.39 25.9536 18.8394 25.6185L27.0922 18.3066L28.0902 17.4222C29.4453 18.6035 30.757 19.8375 32.0495 21.0859C33.4047 22.3949 34.7303 23.7333 36.0263 25.1012C36.6348 25.7444 37.2689 26.3618 37.8847 26.9979C38.424 27.5551 39.0738 28.1656 39.3382 28.9136C39.9154 30.9855 37.031 31.9316 35.4753 32.0227Z" fill="#F5B923"/>
</svg>
