<svg width="28" height="28" viewBox="0 0 28 28" fill="none" xmlns="http://www.w3.org/2000/svg">
<g clip-path="url(#clip0_7010_1834)">
<path d="M27.297 19.8888C27.2951 19.8735 27.2915 19.8586 27.2862 19.8442C27.2822 19.8291 27.2764 19.8145 27.2689 19.8008C26.913 18.8535 25.9448 18.1343 25.2646 17.431C24.3515 16.4874 23.446 15.5392 22.5039 14.6238C21.5969 13.7428 20.6752 12.8736 19.7228 12.0405C20.4259 11.5842 21.2786 11.0309 21.4269 10.1845C21.5518 9.47323 21.088 9.05122 20.6327 8.60889L20.9699 8.19364C21.3634 8.90386 21.8319 9.57872 22.422 10.1394C22.6974 10.4011 23.368 11.1171 23.7773 10.7944C24.094 10.5446 23.8575 10.2301 23.694 9.97111C23.4275 9.54688 23.1447 9.13294 22.8401 8.73476C22.4574 8.23473 22.0413 7.75659 21.5638 7.34473C21.6644 6.98281 21.5828 6.58704 21.1842 6.43272C20.8442 6.30106 20.5527 6.45392 20.2908 6.64916C19.7707 5.80058 19.1964 4.97399 18.5036 4.25674C18.2646 4.0093 17.5706 3.17099 17.1795 3.48714C16.8069 3.78836 17.2786 4.38053 17.442 4.67533C17.695 5.13651 17.988 5.57457 18.3177 5.98443C18.69 6.44396 19.1232 6.86365 19.6201 7.18754L19.3953 7.3698C18.9532 6.91444 18.5311 6.45071 17.8198 6.57545C16.9738 6.72385 16.4207 7.57582 15.9646 8.27894C14.9124 7.07372 13.8028 5.91458 12.6756 4.7805C11.64 3.73987 10.5825 2.71321 9.51898 1.69811C8.8729 1.08186 8.05876 0.349361 7.11067 0.78032C6.24549 1.17307 5.812 2.23746 5.65578 3.11302C5.48672 4.06309 5.65321 5.03981 5.8759 5.96724C6.36253 7.99341 7.22612 9.93223 8.15943 11.7879C8.72294 12.9088 9.32214 14.0198 9.98267 15.0871L6.65792 18.8294C5.83142 18.1433 4.96348 17.4888 4.00788 16.9941C3.28218 16.6184 2.51908 16.2891 1.73431 16.7051C1.02788 17.08 0.48666 17.9415 0.697463 18.7541C0.82382 19.2404 1.20095 19.6908 1.49878 20.0839C1.84425 20.5365 2.21406 20.9701 2.60658 21.3825C3.0786 21.8818 3.57487 22.3647 4.09971 22.8101C3.87205 23.2053 3.52076 23.7517 3.8873 24.1182C4.25384 24.4848 4.79972 24.1343 5.19484 23.9058C5.54676 24.3196 5.92325 24.7144 6.30938 25.0956C7.09016 25.8663 7.96304 26.6865 8.94915 27.1901C9.71225 27.5799 10.6065 27.2034 11.1055 26.5656C11.6739 25.8392 11.5247 25.0884 11.1658 24.3118C10.6655 23.2302 9.93611 22.2605 9.17686 21.3466L12.9177 18.0218C14.3007 18.8784 15.7511 19.6422 17.2213 20.3352C18.4736 20.9255 19.758 21.4642 21.0846 21.8682C22.2717 22.23 23.5942 22.567 24.8396 22.3582C26.0269 22.1598 27.6615 21.3338 27.297 19.8888ZM22.1632 8.5172C22.396 8.79115 22.614 9.07674 22.8215 9.36996C22.9373 9.53321 23.0497 9.69854 23.1586 9.86595C23.2294 9.97417 23.5087 10.2985 23.4846 10.4183C23.4635 10.5233 23.5064 10.444 23.4219 10.4297C23.3898 10.4244 23.3437 10.3796 23.3171 10.3619C23.2233 10.2993 23.1324 10.2329 23.0441 10.1628C22.8396 9.99891 22.6471 9.8205 22.4681 9.62893C21.9713 9.10259 21.5765 8.49506 21.2351 7.85953L21.3635 7.69271C21.6488 7.94874 21.916 8.22425 22.1632 8.5172ZM21.1663 7.30846L20.8599 7.70807L20.3536 8.33188C20.1264 8.10489 19.8994 7.87777 19.6724 7.65064L20.0983 7.3054L20.3769 7.07932C20.4586 7.01303 20.5391 6.93163 20.6303 6.87909C20.9824 6.67612 21.3651 6.85949 21.1663 7.30846ZM18.8499 6.00481C18.5755 5.69955 18.327 5.37193 18.107 5.02536C17.9802 4.82787 17.861 4.62577 17.7495 4.41907C17.7198 4.36448 17.3998 3.77857 17.3834 3.80281C17.4178 3.75176 18.4013 4.7227 18.4619 4.79029C19.0398 5.43689 19.5297 6.15655 19.981 6.89615L19.9431 6.92695C19.5337 6.67762 19.1725 6.35951 18.8499 6.00481ZM6.65395 7.24933C6.08557 5.52569 5.44979 3.25609 6.66776 1.65364C6.9445 1.28947 7.34398 0.997403 7.82161 1.0475C8.3482 1.10273 8.78122 1.54445 9.14763 1.88791C10.1479 2.82529 11.1279 3.79415 12.0992 4.76203C13.3457 6.00369 14.5701 7.27668 15.7261 8.60439L10.8007 14.1644C10.6187 14.3697 10.4367 14.575 10.2548 14.7804C8.80114 12.4234 7.51993 9.87558 6.65395 7.24933ZM11.0352 25.9087C10.8447 26.4149 10.3598 26.8452 9.8234 26.942C9.21502 27.0516 8.67267 26.5799 8.21608 26.2403C7.72432 25.8744 7.26259 25.4677 6.81928 25.0442C6.31452 24.5614 5.82387 24.0553 5.37722 23.5188C5.32007 23.4501 5.21153 23.4503 5.13896 23.488L4.78446 23.6715C4.70322 23.7138 4.62247 23.7575 4.54058 23.7985C4.3985 23.8692 4.39529 23.9071 4.24678 23.7586C4.10228 23.6141 4.12765 23.6256 4.19524 23.4876C4.23377 23.4089 4.27552 23.3318 4.31662 23.2541L4.51811 22.8663C4.55552 22.7944 4.55568 22.6847 4.48744 22.6279C3.95008 22.1807 3.44386 21.6905 2.9622 21.1857C2.53883 20.7428 2.13199 20.2811 1.76625 19.7887C1.42653 19.3321 0.954826 18.7899 1.06448 18.1814C1.16081 17.6451 1.59174 17.16 2.09763 16.9694C2.56323 16.7944 2.99014 16.9524 3.41978 17.1444C4.56531 17.6565 5.5853 18.4378 6.54039 19.2398C6.61794 19.305 6.74303 19.3247 6.8185 19.2398C8.001 17.9089 9.18377 16.578 10.3667 15.2469C12.0487 13.3479 13.7308 11.4486 15.413 9.54896L16.1262 8.74394C16.1319 8.73691 16.1373 8.72955 16.1422 8.72193C16.1475 8.71626 16.1524 8.71034 16.157 8.70409C16.3014 8.48491 16.4564 8.27152 16.6133 8.06068C16.9365 7.62603 17.2635 7.10387 17.8283 6.97559C18.4705 6.82979 18.8398 7.3754 19.2402 7.7754L20.2296 8.76367C20.6293 9.16361 21.1748 9.53438 21.029 10.1757C20.9049 10.7216 20.4132 11.0395 19.9929 11.3542C19.7663 11.5239 19.5369 11.6914 19.3007 11.8472C19.2945 11.8517 19.2886 11.8567 19.2829 11.8619C19.2753 11.8669 19.2679 11.8722 19.2609 11.878L13.5631 16.9265L12.7581 17.6397L8.76553 21.1883C8.6812 21.2631 8.70126 21.389 8.76553 21.4665C9.56827 22.4216 10.3487 23.4415 10.8607 24.5873C11.0527 25.017 11.2109 25.4421 11.0352 25.9087ZM24.3289 22.024C23.1471 22.0934 21.9145 21.731 20.8034 21.3675C18.55 20.6304 16.4018 19.562 14.3407 18.399C13.9661 18.1879 13.593 17.9733 13.2254 17.7496L18.7336 12.8693L19.3998 12.2791C20.3042 13.0675 21.1797 13.8911 22.0423 14.7244C22.9468 15.598 23.8316 16.4914 24.6966 17.4043C25.1028 17.8336 25.5259 18.2457 25.937 18.6703C26.2969 19.0421 26.7306 19.4496 26.9071 19.9489C27.2923 21.3317 25.3672 21.9632 24.3289 22.024Z" fill="#F5B923"/>
<path d="M27.297 19.8888C27.2951 19.8735 27.2915 19.8586 27.2862 19.8442C27.2822 19.8291 27.2764 19.8145 27.2689 19.8008C26.913 18.8535 25.9448 18.1343 25.2646 17.431C24.3515 16.4874 23.446 15.5392 22.5039 14.6238C21.5969 13.7428 20.6752 12.8736 19.7228 12.0405C20.4259 11.5842 21.2786 11.0309 21.4269 10.1845C21.5518 9.47323 21.088 9.05122 20.6327 8.60889L20.9699 8.19364C21.3634 8.90386 21.8319 9.57872 22.422 10.1394C22.6974 10.4011 23.368 11.1171 23.7773 10.7944C24.094 10.5446 23.8575 10.2301 23.694 9.97111C23.4275 9.54688 23.1447 9.13294 22.8401 8.73476C22.4574 8.23473 22.0413 7.75659 21.5638 7.34473C21.6644 6.98281 21.5828 6.58704 21.1842 6.43272C20.8442 6.30106 20.5527 6.45392 20.2908 6.64916C19.7707 5.80058 19.1964 4.97399 18.5036 4.25674C18.2646 4.0093 17.5706 3.17099 17.1795 3.48714C16.8069 3.78836 17.2786 4.38053 17.442 4.67533C17.695 5.13651 17.988 5.57457 18.3177 5.98443C18.69 6.44396 19.1232 6.86365 19.6201 7.18754L19.3953 7.3698C18.9532 6.91444 18.5311 6.45071 17.8198 6.57545C16.9738 6.72385 16.4207 7.57582 15.9646 8.27894C14.9124 7.07372 13.8028 5.91458 12.6756 4.7805C11.64 3.73987 10.5825 2.71321 9.51898 1.69811C8.8729 1.08186 8.05876 0.349361 7.11067 0.78032C6.24549 1.17307 5.812 2.23746 5.65578 3.11302C5.48672 4.06309 5.65321 5.03981 5.8759 5.96724C6.36253 7.99341 7.22612 9.93223 8.15943 11.7879C8.72294 12.9088 9.32214 14.0198 9.98267 15.0871L6.65792 18.8294C5.83142 18.1433 4.96348 17.4888 4.00788 16.9941C3.28218 16.6184 2.51908 16.2891 1.73431 16.7051C1.02788 17.08 0.48666 17.9415 0.697463 18.7541C0.82382 19.2404 1.20095 19.6908 1.49878 20.0839C1.84425 20.5365 2.21406 20.9701 2.60658 21.3825C3.0786 21.8818 3.57487 22.3647 4.09971 22.8101C3.87205 23.2053 3.52076 23.7517 3.8873 24.1182C4.25384 24.4848 4.79972 24.1343 5.19484 23.9058C5.54676 24.3196 5.92325 24.7144 6.30938 25.0956C7.09016 25.8663 7.96304 26.6865 8.94915 27.1901C9.71225 27.5799 10.6065 27.2034 11.1055 26.5656C11.6739 25.8392 11.5247 25.0884 11.1658 24.3118C10.6655 23.2302 9.93611 22.2605 9.17686 21.3466L12.9177 18.0218C14.3007 18.8784 15.7511 19.6422 17.2213 20.3352C18.4736 20.9255 19.758 21.4642 21.0846 21.8682C22.2717 22.23 23.5942 22.567 24.8396 22.3582C26.0269 22.1598 27.6615 21.3338 27.297 19.8888ZM22.1632 8.5172C22.396 8.79115 22.614 9.07674 22.8215 9.36996C22.9373 9.53321 23.0497 9.69853 23.1586 9.86595C23.2294 9.97417 23.5087 10.2985 23.4846 10.4183C23.4635 10.5233 23.5064 10.444 23.4219 10.4297C23.3898 10.4244 23.3437 10.3796 23.3171 10.3619C23.2233 10.2993 23.1324 10.2329 23.0441 10.1628C22.8396 9.99891 22.6471 9.8205 22.4681 9.62893C21.9713 9.10259 21.5765 8.49506 21.2351 7.85953L21.3635 7.69271C21.6488 7.94874 21.916 8.22425 22.1632 8.5172ZM21.1663 7.30846L20.8599 7.70807L20.3536 8.33188C20.1264 8.10489 19.8994 7.87777 19.6724 7.65064L20.0983 7.3054L20.3769 7.07932C20.4586 7.01303 20.5391 6.93163 20.6303 6.87909C20.9824 6.67612 21.3651 6.85949 21.1663 7.30846ZM18.8499 6.00481C18.5755 5.69955 18.327 5.37193 18.107 5.02536C17.9802 4.82787 17.861 4.62577 17.7495 4.41907C17.7198 4.36448 17.3998 3.77857 17.3834 3.80281C17.4178 3.75176 18.4013 4.7227 18.4619 4.79029C19.0398 5.43689 19.5297 6.15655 19.981 6.89615L19.9431 6.92695C19.5337 6.67762 19.1725 6.35951 18.8499 6.00481ZM6.65395 7.24933C6.08557 5.52569 5.44979 3.25609 6.66776 1.65364C6.9445 1.28947 7.34398 0.997403 7.82161 1.0475C8.3482 1.10273 8.78122 1.54445 9.14763 1.88791C10.1479 2.82529 11.1279 3.79415 12.0992 4.76203C13.3457 6.00369 14.5701 7.27668 15.7261 8.60439L10.8007 14.1644C10.6187 14.3697 10.4367 14.575 10.2548 14.7804C8.80115 12.4234 7.51993 9.87558 6.65395 7.24933ZM11.0352 25.9087C10.8447 26.4149 10.3598 26.8452 9.8234 26.942C9.21502 27.0516 8.67267 26.5799 8.21608 26.2403C7.72432 25.8744 7.26259 25.4677 6.81928 25.0442C6.31452 24.5614 5.82387 24.0553 5.37722 23.5188C5.32007 23.4501 5.21153 23.4503 5.13896 23.488L4.78446 23.6715C4.70322 23.7138 4.62247 23.7575 4.54058 23.7985C4.3985 23.8692 4.39529 23.9071 4.24678 23.7586C4.10228 23.6141 4.12765 23.6256 4.19524 23.4876C4.23377 23.4089 4.27552 23.3318 4.31662 23.2541L4.51811 22.8663C4.55552 22.7944 4.55568 22.6847 4.48744 22.6279C3.95008 22.1807 3.44386 21.6905 2.9622 21.1857C2.53883 20.7428 2.13199 20.2811 1.76625 19.7887C1.42653 19.3321 0.954826 18.7899 1.06448 18.1814C1.16081 17.6451 1.59174 17.16 2.09763 16.9694C2.56323 16.7944 2.99014 16.9524 3.41978 17.1444C4.56531 17.6565 5.5853 18.4378 6.54039 19.2398C6.61794 19.305 6.74303 19.3247 6.8185 19.2398C8.001 17.9089 9.18377 16.578 10.3667 15.2469C12.0487 13.3479 13.7308 11.4486 15.413 9.54896L16.1262 8.74394C16.1319 8.7369 16.1373 8.72955 16.1422 8.72193C16.1475 8.71626 16.1524 8.71034 16.157 8.70409C16.3014 8.48491 16.4564 8.27152 16.6133 8.06068C16.9365 7.62603 17.2635 7.10387 17.8283 6.97559C18.4705 6.82979 18.8398 7.3754 19.2402 7.7754L20.2296 8.76367C20.6293 9.16361 21.1748 9.53438 21.029 10.1757C20.9049 10.7216 20.4132 11.0395 19.9929 11.3542C19.7663 11.5239 19.5369 11.6914 19.3007 11.8472C19.2945 11.8517 19.2886 11.8567 19.2829 11.8619C19.2753 11.8669 19.2679 11.8722 19.2609 11.878L13.5631 16.9265L12.7581 17.6397L8.76553 21.1883C8.6812 21.2631 8.70126 21.389 8.76553 21.4665C9.56827 22.4216 10.3487 23.4415 10.8607 24.5873C11.0527 25.017 11.2109 25.4421 11.0352 25.9087ZM24.3289 22.024C23.1471 22.0934 21.9145 21.731 20.8034 21.3675C18.55 20.6304 16.4018 19.562 14.3407 18.399C13.9661 18.1879 13.593 17.9733 13.2254 17.7496L18.7336 12.8693L19.3998 12.2791C20.3042 13.0675 21.1797 13.8911 22.0423 14.7244C22.9468 15.598 23.8316 16.4914 24.6966 17.4043C25.1028 17.8336 25.5259 18.2457 25.937 18.6703C26.2969 19.0421 26.7306 19.4496 26.9071 19.9489C27.2923 21.3317 25.3672 21.9632 24.3289 22.024Z" stroke="#F5B923" stroke-width="0.648217"/>
<path d="M15.8778 10.4175L18.1258 12.1176L18.2885 12.1135C18.2552 10.7821 17.2174 9.74499 15.8858 9.71146C15.7784 9.70885 15.6854 9.75046 15.6218 9.82326C15.5615 9.89235 15.536 9.97954 15.536 10.06C15.5361 10.1407 15.5617 10.227 15.6199 10.2964C15.6807 10.3691 15.7706 10.4148 15.8778 10.4175Z" fill="#F5B923" stroke="#F5B923" stroke-width="0.324109"/>
</g>
<defs>
<clipPath id="clip0_7010_1834">
<rect width="27.8733" height="27.8733" fill="white" transform="scale(1.00454)"/>
</clipPath>
</defs>
</svg>
