<svg width="39" height="28" viewBox="0 0 39 28" fill="none" xmlns="http://www.w3.org/2000/svg">
<g clip-path="url(#clip0_7010_1815)">
<path fill-rule="evenodd" clip-rule="evenodd" d="M13.0823 23.7174C10.6768 23.0193 8.5463 22.7982 6.54714 23.1501C7.36523 23.163 8.12411 23.2619 8.83402 23.4075C9.832 23.6123 10.7304 23.9094 11.5343 24.1752C11.5965 24.1957 11.6582 24.2162 11.7192 24.2363C12.584 24.5214 13.3183 24.7509 14.008 24.8205L14.0366 26.1777L13.958 25.501C13.2791 25.4324 12.5733 25.2236 11.812 24.9758C11.6701 24.9296 11.5262 24.8821 11.3803 24.8338C9.32732 24.1552 6.8564 23.3384 3.45288 24.2093C2.64027 24.4173 1.7745 24.7214 0.848559 25.1465C1.65289 24.5022 2.45738 23.9748 3.27114 23.557C6.30144 22.0008 9.4607 21.9629 13.222 23.0544C16.9456 24.135 20.4937 24.55 23.3844 23.6446C24.0472 23.4369 24.6754 23.1599 25.2633 22.8055C24.8157 23.3161 24.2609 23.8131 23.6192 24.2774C20.2846 26.6906 14.6038 28.225 9.4355 26.2392C8.70055 25.9568 7.976 25.6033 7.26996 25.171C8.04927 25.368 8.82358 25.4919 9.55404 25.5658C10.3504 25.6465 11.0947 25.6678 11.7365 25.6599C13.0677 25.6434 13.958 25.501 13.958 25.501C14.0366 26.1777 14.0367 26.1777 14.0366 26.1777L14.0352 26.1779L14.0326 26.1783L14.0237 26.1797C14.0164 26.1808 14.0057 26.1824 13.9922 26.1845C13.9649 26.1884 13.9254 26.194 13.8747 26.2007C13.7729 26.2141 13.6256 26.232 13.439 26.2505C13.1769 26.2766 12.8366 26.3041 12.4357 26.3226C14.1523 26.572 15.8722 26.488 17.4897 26.1647C19.0168 25.8595 20.4347 25.3448 21.657 24.711C19.0358 25.0525 16.082 24.5879 13.0823 23.7174Z" fill="#F5B923"/>
<path d="M13.0823 23.7174L13.2117 23.1033M13.0823 23.7174C10.6768 23.0193 8.5463 22.7982 6.54714 23.1501C7.36523 23.163 8.12411 23.2619 8.83402 23.4075C9.832 23.6123 10.7304 23.9094 11.5343 24.1752C11.5965 24.1957 11.6582 24.2162 11.7192 24.2363C12.584 24.5214 13.3183 24.7509 14.008 24.8205L14.0366 26.1777M13.0823 23.7174C16.082 24.5879 19.0358 25.0525 21.657 24.711C20.4347 25.3448 19.0168 25.8595 17.4897 26.1647C15.8722 26.488 14.1523 26.572 12.4357 26.3226C12.8366 26.3041 13.1769 26.2766 13.439 26.2505C13.6256 26.232 13.7729 26.2141 13.8747 26.2007C13.9254 26.194 13.9649 26.1884 13.9922 26.1845C14.0057 26.1824 14.0164 26.1808 14.0237 26.1797L14.0326 26.1783L14.0352 26.1779L14.0366 26.1777M14.0366 26.1777L13.958 25.501M14.0366 26.1777C14.0367 26.1777 14.0366 26.1777 13.958 25.501M13.958 25.501C13.2791 25.4324 12.5733 25.2236 11.812 24.9758C11.6701 24.9296 11.5262 24.8821 11.3803 24.8338C9.32732 24.1552 6.8564 23.3384 3.45288 24.2093C2.64027 24.4173 1.7745 24.7214 0.848559 25.1465C1.65289 24.5022 2.45738 23.9748 3.27114 23.557C6.30144 22.0008 9.4607 21.9629 13.222 23.0544C16.9456 24.135 20.4937 24.55 23.3844 23.6446C24.0472 23.4369 24.6754 23.1599 25.2633 22.8055C24.8157 23.3161 24.2609 23.8131 23.6192 24.2774C20.2846 26.6906 14.6038 28.225 9.4355 26.2392C8.70055 25.9568 7.976 25.6033 7.26996 25.171C8.04927 25.368 8.82358 25.4919 9.55404 25.5658C10.3504 25.6465 11.0947 25.6678 11.7365 25.6599C13.0677 25.6434 13.958 25.501 13.958 25.501Z" stroke="#F5B923" stroke-width="0.844646"/>
<path fill-rule="evenodd" clip-rule="evenodd" d="M34.206 8.48631C34.0686 8.13307 33.9917 7.67242 33.9486 7.34988C33.9263 7.18298 33.9108 7.03383 33.9006 6.92462L32.799 5.18009L31.9653 3.86705L32.5409 3.5035C32.7458 3.37412 32.8946 3.25923 33.0203 3.07362C32.9302 3.1084 32.8427 3.14026 32.7586 3.1709C32.7319 3.18062 32.7055 3.19023 32.6794 3.19976C32.1708 3.38616 31.7641 3.55402 31.3719 4.00365L31.1824 4.22082L30.9157 4.19555C24.3085 3.56974 21.0374 8.04756 20.1039 9.32554C20.0709 9.37051 20.041 9.41166 20.0138 9.44831C19.4264 10.244 18.9127 11.0961 18.4049 11.973C18.2941 12.164 18.1833 12.3572 18.072 12.5511C17.678 13.2377 17.2773 13.9358 16.8513 14.6021C15.748 16.3275 14.4238 17.924 12.3636 18.8992L12.3616 18.9L12.3595 18.901C11.2653 19.4077 10.1406 19.8217 8.99397 20.1398L8.99185 20.1404L8.98989 20.1409C8.7575 20.2034 8.53816 20.2724 8.33142 20.3463C8.90657 20.3256 9.4871 20.3485 10.0685 20.4013C11.6386 20.5443 13.2589 20.9132 14.8284 21.2705C15.0708 21.3257 15.312 21.3806 15.5516 21.4344C17.3642 21.8411 19.0909 22.1834 20.6826 22.1483C22.2445 22.1141 23.6368 21.7165 24.8244 20.6887C26.6505 18.3842 29.2049 17.5408 30.8804 17.7889L31.3532 17.859L31.3835 18.4054C31.4031 18.7574 31.3202 19.1315 31.2083 19.4638C31.0925 19.8082 30.9262 20.1644 30.7309 20.4983C30.4269 21.0181 30.0099 21.5551 29.5378 21.8961C29.4937 22.1406 29.3859 22.353 29.2273 22.5162C28.9985 22.7514 28.7164 22.8317 28.5136 22.8397C28.3793 22.8449 28.2205 22.8079 28.1224 22.7836C28.0013 22.7536 27.8673 22.7141 27.7464 22.6763C27.7173 22.6674 27.6887 22.6582 27.6608 22.6493C27.1975 23.3532 26.9536 24.1131 26.8264 24.7355C26.8169 24.7818 26.8081 24.8272 26.7999 24.8717C27.2867 24.591 27.6949 24.2935 28.0113 24.0351C28.2574 23.8341 28.4464 23.6582 28.5719 23.5346C28.6347 23.4728 28.6815 23.4243 28.7115 23.3924C28.7265 23.3764 28.7373 23.3646 28.7438 23.3575C28.7471 23.3539 28.7493 23.3515 28.7504 23.3503L28.751 23.3496L29.3373 22.6829L29.6501 23.4631C29.6593 23.4606 29.6694 23.4577 29.6803 23.4542C29.731 23.438 29.7875 23.4142 29.8437 23.3864C29.8544 23.3812 29.8648 23.3759 29.875 23.3707C30.8375 20.8881 31.934 19.2483 32.6073 18.3823C32.6238 18.3611 32.6639 18.264 32.6497 18.0393C32.6445 17.9556 32.6329 17.877 32.6213 17.8147L32.0392 17.0225C30.8644 16.3835 29.1809 16.1528 27.4316 16.2008C25.6456 16.2498 23.8781 16.5863 22.6823 16.9876L22.2156 15.7855L22.5201 16.3502C23.4947 16.0231 24.8171 15.7415 26.2224 15.6099C26.3991 15.5933 26.5771 15.5792 26.7559 15.5676C28.7963 15.4353 30.939 15.639 32.4027 16.4875L33.1477 17.5013C33.1477 17.5013 33.3944 18.3673 33.0387 18.8244C32.3802 19.6716 31.2755 21.3235 30.3217 23.8544C30.3217 23.8544 29.8989 24.1396 29.5909 24.1374C29.5072 24.1369 29.437 24.1133 29.3792 24.0794C29.2239 23.9883 29.1573 23.8222 29.1573 23.8222C29.1573 23.8222 29.0026 23.998 28.713 24.2609C28.2989 24.6367 27.6091 25.1902 26.7016 25.661C26.515 25.7579 26.3192 25.8511 26.1147 25.9387C26.1147 25.9387 26.1082 25.653 26.1623 25.2045C26.2607 24.3906 26.5587 23.0406 27.4575 21.889C27.4575 21.889 28.2868 22.1841 28.4939 22.1759C28.701 22.1679 29.0551 22.0005 28.9687 21.4909C29.6918 21.1482 30.4417 19.9974 30.7075 19.1026C30.7238 19.0475 30.7384 18.9934 30.751 18.9403C30.7942 18.7583 30.8142 18.5906 30.8063 18.4476C29.3161 18.2268 26.9243 18.9951 25.2174 21.1798C22.3927 23.669 18.5864 22.8028 14.7122 21.9212C11.9227 21.2864 9.09807 20.6436 6.57931 21.2394C6.03903 21.3672 5.51282 21.5521 5.00405 21.8061C5.01639 21.8 5.04744 21.7661 5.09858 21.7102C5.272 21.5204 5.67646 21.0779 6.3655 20.6126C6.96735 20.2062 7.78629 19.7823 8.85804 19.4944C9.97727 19.1838 11.0753 18.7797 12.1432 18.2852C14.8135 17.0213 16.1809 14.639 17.5842 12.1942C18.202 11.1178 18.8268 10.0293 19.5728 9.01864C19.6 8.9819 19.6301 8.94075 19.6632 8.89553C20.6194 7.58666 24.0584 2.87972 30.9633 3.53371C31.4802 2.94108 32.0259 2.74165 32.5641 2.54499C32.8265 2.44907 33.0873 2.35381 33.342 2.21391C33.5703 2.08844 33.7939 1.92706 34.0096 1.69712C33.9662 2.08296 33.9058 2.40144 33.8322 2.66712C33.6927 3.17081 33.5055 3.48471 33.2958 3.70809C33.1456 3.86817 32.9838 3.98177 32.8197 4.08539L33.2671 4.78994L33.8754 5.75213L34.4616 6.68173C34.4616 6.68173 34.5274 7.68423 34.7339 8.21506C35.0576 9.04554 36.6417 12.0818 36.6417 12.0818C36.7282 12.2915 36.8343 12.4773 36.9313 12.6473C37.1744 13.0732 37.3607 13.3995 37.0399 13.7504C36.8781 13.9296 36.8927 14.0382 36.9148 14.2028L36.9168 14.2181C36.931 14.3236 36.0506 14.6789 35.7429 14.755C34.9482 14.9509 34.4018 14.5845 34.1275 14.0378C34.1212 14.0254 34.1152 14.013 34.1093 14.0004C34.1051 13.9916 34.101 13.9827 34.097 13.9738C33.975 13.7041 33.9163 13.3959 33.9237 13.0922C33.9281 12.9088 33.9565 12.7272 34.0096 12.5564L33.5091 12.2233L34.5543 12.7794C34.4516 13.1098 34.5009 13.5165 34.6789 13.7948C34.8304 14.0318 35.1104 14.2316 35.6212 14.1058C35.7338 14.0779 35.9999 13.9832 36.2459 13.8764C36.2811 13.8611 36.3142 13.8463 36.3448 13.8321C36.3885 13.6138 36.4912 13.4444 36.607 13.308C36.5717 13.2294 36.5234 13.1446 36.4495 13.0146C36.4372 12.9932 36.4242 12.9703 36.4104 12.9462C36.3258 12.7972 36.2225 12.6108 36.1318 12.3967L36.1274 12.3882C36.1156 12.3656 36.0983 12.3323 36.0762 12.2898C36.032 12.2047 35.9686 12.0823 35.8916 11.9329C35.7374 11.6342 35.5284 11.227 35.3091 10.7935C34.8793 9.94382 34.3833 8.94126 34.206 8.48631ZM33.8569 13.0275C33.9128 12.7481 34.0096 12.5564 34.0096 12.5564C33.5091 12.2233 33.5091 12.2233 33.5091 12.2233L33.5087 12.2243L33.5082 12.2252L33.5071 12.2275L33.5044 12.233C33.5024 12.237 33.5 12.2419 33.4974 12.2476C33.4919 12.2591 33.485 12.2737 33.4772 12.2916C33.4615 12.3271 33.4413 12.3753 33.4194 12.4343C33.4007 12.4844 33.3803 12.5436 33.3603 12.6103C32.6887 12.1132 32.0043 11.8506 31.4364 11.6327C31.3666 11.6059 31.2986 11.5799 31.2325 11.5541C30.7653 11.3716 30.4337 11.2206 30.1924 11.0115C29.9817 10.829 29.8281 10.5913 29.7584 10.1715L29.7582 10.1697C29.7574 10.1644 29.7561 10.1543 29.7544 10.1399C29.7511 10.1111 29.7464 10.0652 29.7422 10.0054C29.7341 9.88511 29.7285 9.71193 29.7399 9.50923C29.7633 9.09679 29.8547 8.60577 30.1005 8.18367L29.2358 7.31782C29.176 7.37867 27.9583 8.61986 28.1719 10.5169C26.543 11.5384 25.8058 13.0633 25.6411 14.6276C24.5736 14.8009 23.7706 15.0542 23.2106 15.2804C22.8904 15.4098 22.6501 15.53 22.4855 15.621C22.4032 15.6665 22.34 15.7047 22.2951 15.7329C22.2727 15.747 22.255 15.7587 22.2417 15.7676C22.2393 15.7692 22.2371 15.7707 22.235 15.7722C22.2313 15.7747 22.228 15.7769 22.2253 15.7788L22.2232 15.7802C22.2219 15.7811 22.2206 15.7819 22.2195 15.7827L22.2174 15.7843L22.2156 15.7855C22.2156 15.7855 22.2156 15.7855 22.5201 16.3502C22.5201 16.3502 23.6521 15.5455 26.1839 15.2178C26.1856 15.1273 26.1893 15.0367 26.1951 14.9461C26.2926 13.4129 26.9869 11.8887 28.7448 10.9264C28.7721 10.9115 28.7995 10.8967 28.8272 10.8822C28.7844 10.7111 28.7566 10.5451 28.7412 10.3849C28.7411 10.3835 28.7409 10.3821 28.7408 10.3806C28.5979 8.86634 29.5708 7.86435 29.6198 7.81447C28.9755 8.92064 29.189 10.2884 29.189 10.2884C29.2153 10.4493 29.2519 10.5948 29.2979 10.7271C29.3507 10.8792 29.4157 11.0138 29.4918 11.1342C29.8671 11.7288 30.5082 11.9758 31.242 12.2585C31.8765 12.503 32.5803 12.7743 33.2416 13.3199C33.2806 13.352 33.3194 13.3851 33.358 13.4192C33.5729 13.6087 33.7824 13.8293 33.9828 14.0897C33.7847 13.7198 33.7978 13.3242 33.8569 13.0275Z" fill="#F5B923"/>
<path d="M22.5201 16.3502L22.2156 15.7855M22.5201 16.3502C23.4947 16.0231 24.8171 15.7415 26.2224 15.6099C26.3991 15.5933 26.5771 15.5792 26.7559 15.5676C28.7963 15.4353 30.939 15.639 32.4027 16.4875L33.1477 17.5013C33.1477 17.5013 33.3944 18.3673 33.0387 18.8244C32.3802 19.6716 31.2755 21.3235 30.3217 23.8544C30.3217 23.8544 29.8989 24.1395 29.5909 24.1374C29.5072 24.1369 29.437 24.1133 29.3792 24.0794C29.2239 23.9883 29.1573 23.8222 29.1573 23.8222C29.1573 23.8222 29.0026 23.998 28.713 24.2609C28.2989 24.6367 27.6091 25.1902 26.7016 25.661C26.515 25.7579 26.3192 25.8511 26.1147 25.9387C26.1147 25.9387 26.1082 25.653 26.1623 25.2045C26.2607 24.3906 26.5587 23.0406 27.4575 21.889C27.4575 21.889 28.2868 22.1841 28.4939 22.1759C28.701 22.1679 29.0551 22.0005 28.9687 21.4909C29.6918 21.1482 30.4417 19.9974 30.7075 19.1026C30.7238 19.0475 30.7384 18.9934 30.751 18.9403C30.7942 18.7583 30.8142 18.5906 30.8063 18.4476C29.3161 18.2268 26.9243 18.9951 25.2174 21.1798C22.3927 23.669 18.5864 22.8028 14.7122 21.9212C11.9227 21.2864 9.09807 20.6436 6.57931 21.2394C6.03903 21.3672 5.51282 21.5521 5.00405 21.8061C5.01639 21.8 5.04744 21.7661 5.09858 21.7102C5.272 21.5204 5.67646 21.0779 6.3655 20.6126C6.96735 20.2062 7.78629 19.7823 8.85804 19.4944C9.97727 19.1838 11.0753 18.7797 12.1432 18.2852C14.8135 17.0213 16.1809 14.639 17.5842 12.1942C18.202 11.1178 18.8268 10.0293 19.5728 9.01864C19.5999 8.9819 19.6301 8.94075 19.6632 8.89553C20.6194 7.58666 24.0584 2.87972 30.9633 3.53371C31.4802 2.94108 32.0259 2.74165 32.5641 2.54499C32.8265 2.44907 33.0873 2.35381 33.342 2.21391C33.5703 2.08844 33.7939 1.92706 34.0096 1.69712C33.9662 2.08296 33.9058 2.40144 33.8322 2.66712C33.6927 3.17081 33.5055 3.48471 33.2958 3.70809C33.1456 3.86817 32.9838 3.98177 32.8197 4.08539L33.2671 4.78994L33.8754 5.75213L34.4616 6.68173C34.4616 6.68173 34.5274 7.68423 34.7339 8.21506C35.0576 9.04554 36.6417 12.0818 36.6417 12.0818C36.7282 12.2915 36.8343 12.4773 36.9313 12.6473C37.1744 13.0732 37.3607 13.3995 37.0399 13.7504C36.8781 13.9296 36.8927 14.0382 36.9148 14.2028L36.9168 14.2181C36.931 14.3236 36.0506 14.6789 35.7429 14.755C34.9482 14.9509 34.4018 14.5845 34.1275 14.0378C34.1212 14.0254 34.1152 14.013 34.1093 14.0004C34.1051 13.9916 34.101 13.9827 34.097 13.9738C33.975 13.7041 33.9163 13.3959 33.9237 13.0922C33.9281 12.9088 33.9565 12.7272 34.0096 12.5564M22.5201 16.3502C22.2156 15.7855 22.2156 15.7855 22.2156 15.7855M22.5201 16.3502C22.5201 16.3502 23.6521 15.5455 26.1839 15.2178C26.1856 15.1273 26.1893 15.0367 26.1951 14.9461C26.2926 13.4129 26.9869 11.8887 28.7449 10.9264C28.7721 10.9115 28.7995 10.8967 28.8272 10.8822C28.7844 10.7111 28.7566 10.5451 28.7412 10.3849C28.7411 10.3835 28.7409 10.3821 28.7408 10.3806C28.5979 8.86634 29.5708 7.86435 29.6198 7.81447C28.9755 8.92064 29.189 10.2884 29.189 10.2884C29.2153 10.4493 29.2519 10.5948 29.2979 10.7271C29.3507 10.8792 29.4157 11.0138 29.4918 11.1342C29.8671 11.7288 30.5082 11.9758 31.242 12.2585C31.8765 12.503 32.5803 12.7743 33.2416 13.3199C33.2806 13.352 33.3194 13.3851 33.358 13.4192C33.5729 13.6087 33.7824 13.8293 33.9828 14.0897C33.7847 13.7198 33.7978 13.3242 33.8569 13.0275C33.9128 12.7481 34.0096 12.5564 34.0096 12.5564M22.2156 15.7855L22.6823 16.9876C23.8781 16.5863 25.6456 16.2498 27.4316 16.2008C29.1809 16.1528 30.8644 16.3835 32.0392 17.0225L32.6213 17.8147C32.6329 17.877 32.6445 17.9556 32.6497 18.0393C32.6639 18.264 32.6238 18.3611 32.6073 18.3823C31.934 19.2483 30.8375 20.8881 29.875 23.3707C29.8648 23.3759 29.8544 23.3812 29.8437 23.3864C29.7875 23.4142 29.731 23.438 29.6803 23.4542C29.6694 23.4577 29.6593 23.4606 29.6501 23.4631L29.3373 22.6829L28.751 23.3496L28.7504 23.3503C28.7493 23.3515 28.7471 23.3539 28.7438 23.3575C28.7373 23.3646 28.7265 23.3764 28.7115 23.3924C28.6815 23.4243 28.6347 23.4728 28.5719 23.5346C28.4464 23.6582 28.2574 23.8341 28.0113 24.0351C27.6949 24.2935 27.2867 24.591 26.7999 24.8717C26.8081 24.8272 26.8169 24.7818 26.8264 24.7355C26.9536 24.1131 27.1975 23.3532 27.6608 22.6493C27.6887 22.6582 27.7173 22.6674 27.7464 22.6763C27.8673 22.7141 28.0013 22.7536 28.1224 22.7836C28.2205 22.8079 28.3793 22.8449 28.5136 22.8397C28.7164 22.8317 28.9985 22.7514 29.2273 22.5162C29.3859 22.353 29.4937 22.1406 29.5378 21.8961C30.0099 21.5551 30.4269 21.0181 30.7309 20.4983C30.9262 20.1644 31.0925 19.8082 31.2083 19.4638C31.3202 19.1315 31.4031 18.7574 31.3835 18.4054L31.3532 17.859L30.8804 17.7889C29.2049 17.5408 26.6505 18.3842 24.8244 20.6887C23.6368 21.7165 22.2445 22.1141 20.6826 22.1483C19.0909 22.1834 17.3642 21.8411 15.5516 21.4344C15.312 21.3806 15.0708 21.3257 14.8284 21.2705C13.2589 20.9132 11.6386 20.5443 10.0685 20.4013C9.4871 20.3485 8.90657 20.3256 8.33142 20.3463C8.53816 20.2724 8.7575 20.2034 8.98989 20.1409L8.99185 20.1404L8.99397 20.1398C10.1406 19.8217 11.2653 19.4077 12.3595 18.901L12.3616 18.9L12.3636 18.8992C14.4238 17.924 15.748 16.3275 16.8513 14.6021C17.2773 13.9358 17.678 13.2377 18.072 12.5511C18.1833 12.3572 18.2941 12.164 18.4049 11.973C18.9127 11.0961 19.4264 10.244 20.0138 9.44831C20.041 9.41166 20.0709 9.3705 20.1039 9.32554C21.0374 8.04756 24.3085 3.56974 30.9157 4.19555L31.1824 4.22082L31.3719 4.00365C31.7641 3.55402 32.1708 3.38616 32.6794 3.19976C32.7055 3.19023 32.7319 3.18062 32.7586 3.1709C32.8427 3.14026 32.9302 3.1084 33.0203 3.07362C32.8946 3.25923 32.7459 3.37412 32.5409 3.5035L31.9653 3.86705L32.799 5.18009L33.9006 6.92462C33.9108 7.03383 33.9263 7.18298 33.9486 7.34988C33.9917 7.67242 34.0684 8.13264 34.2058 8.48588C34.3832 8.94084 34.8793 9.94382 35.3091 10.7935C35.5284 11.227 35.7374 11.6342 35.8916 11.9329C35.9686 12.0823 36.032 12.2047 36.0762 12.2898C36.0983 12.3323 36.1156 12.3655 36.1274 12.3882L36.1318 12.3967C36.2225 12.6108 36.3258 12.7972 36.4104 12.9462C36.4242 12.9703 36.4372 12.9932 36.4495 13.0146C36.5234 13.1446 36.5717 13.2294 36.607 13.308C36.4912 13.4444 36.3885 13.6138 36.3448 13.8321C36.3142 13.8463 36.2811 13.8611 36.2459 13.8764C35.9999 13.9832 35.7338 14.0779 35.6212 14.1058C35.1104 14.2316 34.8304 14.0318 34.6789 13.7948C34.5009 13.5165 34.4516 13.1098 34.5543 12.7794L33.5091 12.2233M22.2156 15.7855L22.2174 15.7843L22.2195 15.7827C22.2206 15.7819 22.2219 15.7811 22.2232 15.7802L22.2253 15.7788C22.228 15.7769 22.2313 15.7747 22.235 15.7722C22.2371 15.7707 22.2393 15.7692 22.2417 15.7676C22.255 15.7587 22.2727 15.747 22.2951 15.7329C22.34 15.7047 22.4032 15.6665 22.4855 15.621C22.6501 15.53 22.8904 15.4098 23.2106 15.2804C23.7706 15.0542 24.5736 14.8009 25.6411 14.6276C25.8058 13.0633 26.543 11.5384 28.1719 10.5169C27.9583 8.61986 29.1757 7.37909 29.2354 7.31825L30.1006 8.18367C29.8547 8.60577 29.7633 9.09679 29.7399 9.50923C29.7285 9.71193 29.7341 9.88511 29.7422 10.0054C29.7464 10.0652 29.7511 10.1111 29.7544 10.1399C29.7561 10.1543 29.7574 10.1644 29.7582 10.1697L29.7584 10.1715C29.8281 10.5913 29.9817 10.829 30.1924 11.0115C30.4337 11.2206 30.7653 11.3716 31.2325 11.5541C31.2986 11.5799 31.3666 11.6059 31.4364 11.6327C32.0043 11.8506 32.6887 12.1132 33.3603 12.6103C33.3803 12.5436 33.4007 12.4844 33.4194 12.4343C33.4413 12.3753 33.4615 12.3271 33.4772 12.2916C33.485 12.2737 33.4919 12.2591 33.4973 12.2476C33.5 12.2419 33.5024 12.237 33.5044 12.233L33.5071 12.2275L33.5082 12.2252L33.5087 12.2243L33.5091 12.2233M34.0096 12.5564L33.5091 12.2233M34.0096 12.5564C33.5091 12.2233 33.5091 12.2233 33.5091 12.2233M36.3452 14.3193L36.345 14.3177" stroke="#F5B923" stroke-width="0.844646"/>
</g>
<defs>
<clipPath id="clip0_7010_1815">
<rect width="38.0091" height="27.8733" fill="white" transform="scale(1.00454)"/>
</clipPath>
</defs>
</svg>
