<svg width="34" height="28" viewBox="0 0 34 28" fill="none" xmlns="http://www.w3.org/2000/svg">
<g clip-path="url(#clip0_7010_1785)">
<mask id="mask0_7010_1785" style="mask-type:luminance" maskUnits="userSpaceOnUse" x="0" y="0" width="34" height="28">
<path d="M33.9995 0H0V27.9996H33.9995V0Z" fill="white"/>
</mask>
<g mask="url(#mask0_7010_1785)">
<path d="M16.3579 17.801C16.3458 17.9832 16.3002 18.1349 16.2212 18.2564C16.1423 18.3778 16.0239 18.4765 15.866 18.5524C15.7324 18.6162 15.5654 18.6617 15.365 18.6891C15.1645 18.7134 14.9549 18.7256 14.7364 18.7256V19.8323H16.1666V23.4162H14.7364V24.6002H19.2636V23.4162H17.8654V17.8011L16.3579 17.801Z" fill="white"/>
<path d="M17.0001 0C16.1905 0 15.4675 2.92961 14.8125 3.40541C14.1576 3.8812 11.1474 3.66349 10.8973 4.43342C10.647 5.20335 13.2103 6.79627 13.4606 7.56606C13.7108 8.33585 12.5735 11.1311 13.2284 11.6069C13.8834 12.0827 16.1906 10.1373 17.0001 10.1373C17.8096 10.1373 20.1167 12.0827 20.7717 11.6069C21.4267 11.1311 20.2893 8.33599 20.5396 7.56606C20.7898 6.79613 23.3529 5.20324 23.1028 4.43342C22.8526 3.66363 19.8427 3.8812 19.1877 3.40541C18.5328 2.92961 17.8096 0 17.0001 0Z" fill="#E4081C"/>
<path d="M23.0797 22.3562C23.0797 21.0938 24.103 20.0705 25.3654 20.0705H31.7135C32.976 20.0705 33.9992 21.0938 33.9992 22.3562V27.9996H23.0797V22.3562Z" fill="#F7B500"/>
<path d="M11.4157 16.6571C11.4157 15.3948 12.4391 14.3714 13.7014 14.3714H19.3051C20.5674 14.3714 21.5908 15.3948 21.5908 16.6571V27.9996H11.4157V16.6571Z" fill="#FFD300"/>
<path d="M0 20.1264C0 18.864 1.02333 17.8407 2.28568 17.8407H7.88934C9.1517 17.8407 10.175 18.864 10.175 20.1264V28.2476H0V20.1264Z" fill="#E28900"/>
<path fill-rule="evenodd" clip-rule="evenodd" d="M30.1587 13.5723L30.181 13.5678C29.4093 13.403 28.8159 12.7817 28.6856 12.0015L28.6259 11.6458L28.5703 11.9769C28.4393 12.7578 27.8456 13.3788 27.073 13.5435L27.0507 13.5482C27.8226 13.7128 28.4154 14.3337 28.5463 15.1139L28.6062 15.47L28.6616 15.1386C28.7925 14.358 29.3859 13.7369 30.1587 13.5723Z" fill="#F7B500"/>
<path fill-rule="evenodd" clip-rule="evenodd" d="M6.33296 8.00036L6.34813 7.9971C5.82331 7.88482 5.4198 7.46248 5.33101 6.93175L5.29049 6.68984L5.25258 6.91503C5.16358 7.44597 4.75984 7.86853 4.23439 7.98036L4.21922 7.98362C4.74424 8.09567 5.14755 8.51827 5.23635 9.04854L5.27686 9.29088L5.31455 9.06549C5.40378 8.53432 5.80751 8.11196 6.33296 8.00036Z" fill="#F7B500"/>
<path d="M14.9679 19.6335L16.3907 18.6392H17.7364V24.6391H16.2364V20.3706L14.9679 21.2449V19.6335Z" fill="#E28900"/>
<path d="M14.7197 19.3858L16.1425 18.3915H17.4882V24.3914H15.9883V20.1229L14.7197 20.9972V19.3858Z" fill="#F9B32A"/>
<path d="M3.67968 25.6506V24.5878L5.66822 23.1958C5.85565 23.0633 5.9905 22.9627 6.07279 22.8941C6.15964 22.821 6.22364 22.7455 6.26478 22.6678C6.3105 22.5855 6.33336 22.4873 6.33336 22.373C6.33336 22.2038 6.27393 22.069 6.15507 21.9684C6.04079 21.8633 5.8785 21.8107 5.66822 21.8107C5.43508 21.8107 5.24766 21.8724 5.10594 21.9958C4.9688 22.1147 4.89338 22.2816 4.87966 22.4964H3.67968C3.68882 22.1901 3.76425 21.9067 3.90596 21.6461C4.04767 21.381 4.2671 21.1661 4.56424 21.0016C4.86595 20.8324 5.24309 20.7479 5.69565 20.7479C6.08879 20.7479 6.42478 20.8141 6.70364 20.9467C6.98249 21.0793 7.19506 21.2621 7.34134 21.4953C7.48762 21.7238 7.56077 21.9844 7.56077 22.277C7.56077 22.5147 7.52191 22.7227 7.4442 22.901C7.36648 23.0793 7.24534 23.2461 7.08077 23.4015C6.92078 23.557 6.69906 23.733 6.41564 23.9295L5.46937 24.5878V24.6221H7.65676V25.6506H3.67968Z" fill="#FFD200"/>
<path d="M3.43149 25.4029V24.3401L5.42003 22.9481C5.60746 22.8156 5.74231 22.715 5.8246 22.6464C5.91145 22.5733 5.97545 22.4978 6.01659 22.4201C6.06231 22.3378 6.08517 22.2396 6.08517 22.1253C6.08517 21.9561 6.02574 21.8213 5.90688 21.7207C5.7926 21.6156 5.63031 21.563 5.42003 21.563C5.18689 21.563 4.99947 21.6247 4.85775 21.7481C4.72061 21.867 4.64519 22.0338 4.63147 22.2487H3.43149C3.44063 21.9424 3.51606 21.659 3.65777 21.3984C3.79948 21.1333 4.01891 20.9184 4.31605 20.7539C4.61776 20.5847 4.9949 20.5002 5.44746 20.5002C5.8406 20.5002 6.17659 20.5664 6.45545 20.699C6.7343 20.8316 6.94687 21.0144 7.09315 21.2476C7.23943 21.4761 7.31258 21.7367 7.31258 22.0293C7.31258 22.267 7.27372 22.475 7.19601 22.6533C7.11829 22.8316 6.99715 22.9984 6.83258 23.1538C6.67259 23.3093 6.45087 23.4853 6.16745 23.6818L5.22118 24.3401V24.3744H7.40857V25.4029H3.43149Z" fill="#F7B500"/>
<path d="M29.4358 23.5139C29.9569 23.5231 30.3615 23.6465 30.6495 23.8842C30.9375 24.1219 31.0814 24.4671 31.0814 24.9196C31.0814 25.2122 31.006 25.4773 30.8552 25.715C30.7043 25.9528 30.4757 26.1425 30.1695 26.2842C29.8632 26.4259 29.4883 26.4967 29.0449 26.4967C28.6152 26.4967 28.2427 26.4282 27.9272 26.291C27.6164 26.1539 27.3764 25.9665 27.2072 25.7288C27.0381 25.4865 26.9444 25.2168 26.9261 24.9196H28.1124C28.1307 25.1025 28.2152 25.2465 28.3661 25.3516C28.5169 25.4522 28.7363 25.5025 29.0243 25.5025C29.2986 25.5025 29.5089 25.4453 29.6552 25.331C29.806 25.2122 29.8815 25.0591 29.8815 24.8716C29.8815 24.4693 29.6003 24.2682 29.038 24.2682H27.9752V23.4934L29.2712 22.6225V22.5882H27.317V21.594H30.7866V22.5814L29.4358 23.4796V23.5139Z" fill="#E28900"/>
<path d="M29.1875 23.5139C29.7086 23.5231 30.1132 23.6465 30.4012 23.8842C30.6892 24.1219 30.8332 24.4671 30.8332 24.9196C30.8332 25.2122 30.7577 25.4773 30.6069 25.715C30.456 25.9528 30.2275 26.1425 29.9212 26.2842C29.6149 26.4259 29.2401 26.4967 28.7966 26.4967C28.367 26.4967 27.9945 26.4282 27.679 26.291C27.3682 26.1539 27.1282 25.9665 26.9591 25.7288C26.7899 25.4865 26.6962 25.2168 26.6779 24.9196H27.8642C27.8825 25.1025 27.967 25.2465 28.1179 25.3516C28.2688 25.4522 28.4882 25.5025 28.7761 25.5025C29.0503 25.5025 29.2606 25.4453 29.4069 25.331C29.5578 25.2122 29.6332 25.0591 29.6332 24.8716C29.6332 24.4693 29.3521 24.2682 28.7898 24.2682H27.727V23.4934L29.0229 22.6225V22.5882H27.0688V21.594H30.5383V22.5814L29.1875 23.4796V23.5139Z" fill="#FCD842"/>
</g>
</g>
<defs>
<clipPath id="clip0_7010_1785">
<rect width="33.8462" height="27.8733" fill="white" transform="scale(1.00453)"/>
</clipPath>
</defs>
</svg>
