<svg width="74" height="24" viewBox="0 0 74 24" fill="none" xmlns="http://www.w3.org/2000/svg">
<g clip-path="url(#clip0_7010_2122)">
<mask id="mask0_7010_2122" style="mask-type:luminance" maskUnits="userSpaceOnUse" x="0" y="0" width="74" height="24">
<path d="M73.6272 0H0V24H73.6272V0Z" fill="white"/>
</mask>
<g mask="url(#mask0_7010_2122)">
<path d="M73.6268 23.4881H68.0752C67.904 22.5484 67.6482 21.5241 67.477 20.5844C67.3923 20.1574 67.3067 19.9862 66.7941 20.0718H60.1316C59.7902 20.0718 59.619 20.1574 59.5343 20.4988C59.192 21.4385 58.8505 22.2926 58.5109 23.2323C58.4253 23.3179 58.3397 23.4881 58.1695 23.4881H52.1016C52.4439 22.5484 52.871 21.6943 53.2124 20.8403C55.7756 14.6067 58.3351 8.45602 60.9857 2.22063C61.1667 1.63029 61.5463 1.12068 62.0601 0.778167C62.5738 0.435655 63.1902 0.281304 63.8048 0.34127H68.6734C68.8437 1.10976 69.0149 1.87825 69.1861 2.56208C70.4672 8.71187 71.7483 14.7761 73.0295 20.9259C73.1994 21.6943 73.3703 22.4631 73.5421 23.2323C73.5874 23.3109 73.6162 23.398 73.6268 23.4881ZM66.3698 15.2887C65.7719 12.4697 65.174 9.65093 64.5761 6.83251L61.4984 15.2887H66.3698Z" fill="#1534CC"/>
<path d="M49.4555 0C50.224 0.171189 50.9078 0.255854 51.6763 0.427043C52.3592 0.598232 52.9575 0.768491 53.7232 1.02528C53.2961 2.64785 52.9547 4.27043 52.6132 5.89394C51.6735 5.63715 50.8195 5.2957 49.8798 5.12452C48.645 4.82577 47.3568 4.82577 46.122 5.12452C45.5968 5.29456 45.1053 5.55494 44.6697 5.89394C44.511 6.01321 44.3822 6.16777 44.2935 6.34538C44.2048 6.523 44.1586 6.71882 44.1586 6.91735C44.1586 7.11589 44.2048 7.3117 44.2935 7.48932C44.3822 7.66694 44.511 7.82149 44.6697 7.94077C45.146 8.35815 45.6606 8.72977 46.2066 9.05071C47.4031 9.82013 48.6842 10.4174 49.8798 11.1906C50.5732 11.6218 51.1676 12.1947 51.6239 12.8719C52.0803 13.549 52.3882 14.315 52.5276 15.1196C52.7339 16.4889 52.5368 17.8886 51.9603 19.1477C51.3838 20.4067 50.453 21.4705 49.2815 22.209C47.6785 23.1941 45.8624 23.7799 43.9858 23.9172C41.3922 24.1507 38.7781 23.8603 36.2991 23.0631C36.1279 22.9775 35.9576 22.9775 35.7864 22.8919C35.7008 22.8919 35.7008 22.8063 35.6152 22.8063C35.9576 21.0982 36.2991 19.4756 36.7261 17.7674C37.1531 17.9377 37.5802 18.1089 37.9216 18.2791C39.824 19.1241 41.9327 19.3917 43.9858 19.0485C44.5457 18.9466 45.073 18.7121 45.5237 18.3647C45.7593 18.2297 45.9576 18.0384 46.101 17.808C46.2444 17.5775 46.3283 17.315 46.3453 17.0441C46.3623 16.7732 46.3117 16.5023 46.1982 16.2557C46.0847 16.0091 45.9118 15.7946 45.6949 15.6313C45.0745 15.1282 44.4177 14.6717 43.73 14.2655C42.62 13.5816 41.5092 13.069 40.4839 12.3005C39.8347 11.8671 39.2855 11.3 38.8731 10.6371C38.4608 9.97432 38.1947 9.23107 38.0928 8.45713C37.9548 7.31031 38.1189 6.14733 38.5688 5.08347C39.0188 4.0196 39.7389 3.09179 40.6579 2.392C42.3021 1.09891 44.2946 0.325668 46.3806 0.171189C46.4662 0.171189 46.6365 0.0855947 46.7221 0.0855947C47.6618 0 48.5158 0 49.4555 0Z" fill="#1534CC"/>
<path d="M27.9308 0.427168C27.5885 1.19566 27.3317 1.87949 26.9902 2.64798C24.1721 9.48066 21.2675 16.3143 18.4494 23.147C18.2782 23.4893 18.107 23.574 17.8521 23.574H12.467C12.3205 23.5831 12.1762 23.5348 12.0647 23.4392C11.9532 23.3437 11.8833 23.2085 11.8697 23.0623C10.3334 17.0831 8.79578 11.1039 7.25694 5.12464C7.16504 4.613 6.94474 4.13306 6.61668 3.72982C6.28862 3.32658 5.86354 3.01324 5.3813 2.81917C3.7325 2.08406 2.01587 1.51164 0.255854 1.11006C0.209458 1.11555 0.162422 1.11064 0.118165 1.09567C0.0739074 1.0807 0.0335411 1.05606 0 1.02354C0 0.341574 0 0.341574 0.683827 0.341574H10.1634C10.8493 0.307999 11.5222 0.536452 12.0458 0.980623C12.5695 1.42479 12.9047 2.05145 12.9834 2.73357C13.7519 6.92027 14.606 11.1898 15.3745 15.3746C15.3745 15.5458 15.4591 15.716 15.4591 15.9728C15.5447 15.8016 15.6303 15.716 15.6303 15.6305C17.5944 10.6771 19.5602 5.63728 21.5243 0.683022C21.5534 0.573572 21.6214 0.478502 21.7156 0.41564C21.8098 0.352778 21.9237 0.326443 22.036 0.341574H27.5029C27.6343 0.410715 27.7829 0.440437 27.9308 0.427168Z" fill="#1534CC"/>
<path d="M25.5391 23.5741C27.1616 15.8017 28.7851 8.19961 30.4933 0.427246H36.471C36.2151 1.62278 35.9584 2.73272 35.7025 3.92918C34.3367 10.2492 32.97 16.6539 31.6889 22.9759C31.6033 23.4029 31.433 23.5741 31.006 23.5741H25.5391Z" fill="#1534CC"/>
</g>
</g>
<defs>
<clipPath id="clip0_7010_2122">
<rect width="73.6272" height="24" fill="white"/>
</clipPath>
</defs>
</svg>
